<?xml version="1.0" encoding="UTF-8" standalone="no"?>
<!DOCTYPE svg PUBLIC "-//W3C//DTD SVG 1.1//EN"
 "http://www.w3.org/Graphics/SVG/1.1/DTD/svg11.dtd">
<!-- Generated by graphviz version 2.43.0 (0)
 -->
<!-- Title: TranslatorGenerator Pages: 1 -->
<svg width="755pt" height="1055pt"
 viewBox="0.00 0.00 755.00 1055.17" xmlns="http://www.w3.org/2000/svg" xmlns:xlink="http://www.w3.org/1999/xlink">
<g id="graph0" class="graph" transform="scale(1 1) rotate(0) translate(4 1051.17)">
<title>TranslatorGenerator</title>
<polygon fill="white" stroke="transparent" points="-4,4 -4,-1051.17 751,-1051.17 751,4 -4,4"/>
<!-- 1 -->
<g id="node1" class="node">
<title>1</title>
<ellipse fill="none" stroke="black" cx="189" cy="-1029.17" rx="18" ry="18"/>
<text text-anchor="middle" x="189" y="-1025.47" font-family="Times,serif" font-size="14.00">d</text>
</g>
<!-- 2 -->
<g id="node2" class="node">
<title>2</title>
<polygon fill="none" stroke="green" points="54,-956.78 0,-956.78 0,-920.78 54,-920.78 54,-956.78"/>
<text text-anchor="middle" x="27" y="-935.08" font-family="Times,serif" font-size="14.00">var</text>
</g>
<!-- 1&#45;&#45;2 -->
<g id="edge1" class="edge">
<title>1&#45;&#45;2</title>
<path fill="none" stroke="black" d="M171.68,-1023.2C146.4,-1015.44 98.55,-998.85 63,-975.17 55.41,-970.12 48.05,-963.33 41.98,-957.05"/>
</g>
<!-- 3 -->
<g id="node3" class="node">
<title>3</title>
<ellipse fill="none" stroke="black" cx="108" cy="-938.78" rx="36.29" ry="36.29"/>
<text text-anchor="middle" x="108" y="-935.08" font-family="Times,serif" font-size="14.00">name</text>
</g>
<!-- 1&#45;&#45;3 -->
<g id="edge2" class="edge">
<title>1&#45;&#45;3</title>
<path fill="none" stroke="black" d="M177.05,-1015.13C165.34,-1002.36 147.16,-982.52 132.4,-966.4"/>
</g>
<!-- 5 -->
<g id="node5" class="node">
<title>5</title>
<polygon fill="none" stroke="green" points="216,-956.78 162,-956.78 162,-920.78 216,-920.78 216,-956.78"/>
<text text-anchor="middle" x="189" y="-935.08" font-family="Times,serif" font-size="14.00">:</text>
</g>
<!-- 1&#45;&#45;5 -->
<g id="edge4" class="edge">
<title>1&#45;&#45;5</title>
<path fill="none" stroke="black" d="M189,-1011.13C189,-995.58 189,-972.7 189,-957.07"/>
</g>
<!-- 6 -->
<g id="node6" class="node">
<title>6</title>
<ellipse fill="none" stroke="black" cx="252" cy="-938.78" rx="18" ry="18"/>
<text text-anchor="middle" x="252" y="-935.08" font-family="Times,serif" font-size="14.00">g</text>
</g>
<!-- 1&#45;&#45;6 -->
<g id="edge5" class="edge">
<title>1&#45;&#45;6</title>
<path fill="none" stroke="black" d="M199.12,-1013.97C210.88,-997.48 230.16,-970.43 241.9,-953.94"/>
</g>
<!-- 41 -->
<g id="node41" class="node">
<title>41</title>
<polygon fill="none" stroke="green" points="342,-956.78 288,-956.78 288,-920.78 342,-920.78 342,-956.78"/>
<text text-anchor="middle" x="315" y="-935.08" font-family="Times,serif" font-size="14.00">;</text>
</g>
<!-- 1&#45;&#45;41 -->
<g id="edge40" class="edge">
<title>1&#45;&#45;41</title>
<path fill="none" stroke="black" d="M205.03,-1020.27C223.63,-1010.75 254.83,-993.72 279,-975.17 286.09,-969.73 293.25,-963.01 299.29,-956.88"/>
</g>
<!-- 4 -->
<g id="node4" class="node">
<title>4</title>
<polygon fill="none" stroke="green" points="132.5,-866.38 77.5,-866.38 77.5,-830.38 132.5,-830.38 132.5,-866.38"/>
<text text-anchor="middle" x="105" y="-844.68" font-family="Times,serif" font-size="14.00">array</text>
</g>
<!-- 3&#45;&#45;4 -->
<g id="edge3" class="edge">
<title>3&#45;&#45;4</title>
<path fill="none" stroke="black" d="M106.8,-902.33C106.38,-890.04 105.93,-876.8 105.59,-866.63"/>
</g>
<!-- 7 -->
<g id="node7" class="node">
<title>7</title>
<polygon fill="none" stroke="green" points="207,-866.38 151,-866.38 151,-830.38 207,-830.38 207,-866.38"/>
<text text-anchor="middle" x="179" y="-844.68" font-family="Times,serif" font-size="14.00">Array</text>
</g>
<!-- 6&#45;&#45;7 -->
<g id="edge6" class="edge">
<title>6&#45;&#45;7</title>
<path fill="none" stroke="black" d="M241.69,-923.84C236.73,-917.25 230.66,-909.33 225,-902.38 215.15,-890.29 203.65,-877.04 194.62,-866.81"/>
</g>
<!-- 8 -->
<g id="node8" class="node">
<title>8</title>
<polygon fill="none" stroke="green" points="279,-866.38 225,-866.38 225,-830.38 279,-830.38 279,-866.38"/>
<text text-anchor="middle" x="252" y="-844.68" font-family="Times,serif" font-size="14.00">&lt;</text>
</g>
<!-- 6&#45;&#45;8 -->
<g id="edge7" class="edge">
<title>6&#45;&#45;8</title>
<path fill="none" stroke="black" d="M252,-920.73C252,-905.18 252,-882.3 252,-866.67"/>
</g>
<!-- 9 -->
<g id="node9" class="node">
<title>9</title>
<ellipse fill="none" stroke="black" cx="315" cy="-848.38" rx="18" ry="18"/>
<text text-anchor="middle" x="315" y="-844.68" font-family="Times,serif" font-size="14.00">t</text>
</g>
<!-- 6&#45;&#45;9 -->
<g id="edge8" class="edge">
<title>6&#45;&#45;9</title>
<path fill="none" stroke="black" d="M262.12,-923.57C273.88,-907.08 293.16,-880.03 304.9,-863.55"/>
</g>
<!-- 40 -->
<g id="node40" class="node">
<title>40</title>
<polygon fill="none" stroke="green" points="405,-866.38 351,-866.38 351,-830.38 405,-830.38 405,-866.38"/>
<text text-anchor="middle" x="378" y="-844.68" font-family="Times,serif" font-size="14.00">&gt;</text>
</g>
<!-- 6&#45;&#45;40 -->
<g id="edge39" class="edge">
<title>6&#45;&#45;40</title>
<path fill="none" stroke="black" d="M261.03,-923.16C265.78,-916.28 272.06,-908.29 279,-902.38 290.73,-892.4 325.69,-874.55 350.74,-862.35"/>
</g>
<!-- 10 -->
<g id="node10" class="node">
<title>10</title>
<ellipse fill="none" stroke="black" cx="315" cy="-776.38" rx="18" ry="18"/>
<text text-anchor="middle" x="315" y="-772.68" font-family="Times,serif" font-size="14.00">g</text>
</g>
<!-- 9&#45;&#45;10 -->
<g id="edge9" class="edge">
<title>9&#45;&#45;10</title>
<path fill="none" stroke="black" d="M315,-830.08C315,-819.23 315,-805.3 315,-794.48"/>
</g>
<!-- 11 -->
<g id="node11" class="node">
<title>11</title>
<polygon fill="none" stroke="green" points="239,-722.38 183,-722.38 183,-686.38 239,-686.38 239,-722.38"/>
<text text-anchor="middle" x="211" y="-700.68" font-family="Times,serif" font-size="14.00">Array</text>
</g>
<!-- 10&#45;&#45;11 -->
<g id="edge10" class="edge">
<title>10&#45;&#45;11</title>
<path fill="none" stroke="black" d="M300.54,-765.65C284.02,-754.53 256.67,-736.12 236.54,-722.57"/>
</g>
<!-- 12 -->
<g id="node12" class="node">
<title>12</title>
<polygon fill="none" stroke="green" points="311,-722.38 257,-722.38 257,-686.38 311,-686.38 311,-722.38"/>
<text text-anchor="middle" x="284" y="-700.68" font-family="Times,serif" font-size="14.00">&lt;</text>
</g>
<!-- 10&#45;&#45;12 -->
<g id="edge11" class="edge">
<title>10&#45;&#45;12</title>
<path fill="none" stroke="black" d="M307.97,-759.5C303.11,-748.52 296.65,-733.94 291.66,-722.67"/>
</g>
<!-- 13 -->
<g id="node13" class="node">
<title>13</title>
<ellipse fill="none" stroke="black" cx="347" cy="-704.38" rx="18" ry="18"/>
<text text-anchor="middle" x="347" y="-700.68" font-family="Times,serif" font-size="14.00">t</text>
</g>
<!-- 10&#45;&#45;13 -->
<g id="edge12" class="edge">
<title>10&#45;&#45;13</title>
<path fill="none" stroke="black" d="M322.26,-759.5C327.5,-748.04 334.54,-732.64 339.77,-721.2"/>
</g>
<!-- 39 -->
<g id="node39" class="node">
<title>39</title>
<polygon fill="none" stroke="green" points="437,-722.38 383,-722.38 383,-686.38 437,-686.38 437,-722.38"/>
<text text-anchor="middle" x="410" y="-700.68" font-family="Times,serif" font-size="14.00">&gt;</text>
</g>
<!-- 10&#45;&#45;39 -->
<g id="edge38" class="edge">
<title>10&#45;&#45;39</title>
<path fill="none" stroke="black" d="M329.02,-765.05C344.19,-753.87 368.64,-735.86 386.71,-722.54"/>
</g>
<!-- 14 -->
<g id="node14" class="node">
<title>14</title>
<ellipse fill="none" stroke="black" cx="347" cy="-632.38" rx="18" ry="18"/>
<text text-anchor="middle" x="347" y="-628.68" font-family="Times,serif" font-size="14.00">g</text>
</g>
<!-- 13&#45;&#45;14 -->
<g id="edge13" class="edge">
<title>13&#45;&#45;14</title>
<path fill="none" stroke="black" d="M347,-686.08C347,-675.23 347,-661.3 347,-650.48"/>
</g>
<!-- 15 -->
<g id="node15" class="node">
<title>15</title>
<polygon fill="none" stroke="green" points="208,-578.38 154,-578.38 154,-542.38 208,-542.38 208,-578.38"/>
<text text-anchor="middle" x="181" y="-556.68" font-family="Times,serif" font-size="14.00">Map</text>
</g>
<!-- 14&#45;&#45;15 -->
<g id="edge14" class="edge">
<title>14&#45;&#45;15</title>
<path fill="none" stroke="black" d="M330.46,-624.97C305.65,-615.28 257.39,-596.13 217,-578.38 214.09,-577.1 211.06,-575.73 208.05,-574.35"/>
</g>
<!-- 16 -->
<g id="node16" class="node">
<title>16</title>
<polygon fill="none" stroke="green" points="280,-578.38 226,-578.38 226,-542.38 280,-542.38 280,-578.38"/>
<text text-anchor="middle" x="253" y="-556.68" font-family="Times,serif" font-size="14.00">&lt;</text>
</g>
<!-- 14&#45;&#45;16 -->
<g id="edge15" class="edge">
<title>14&#45;&#45;16</title>
<path fill="none" stroke="black" d="M332.72,-620.75C317.62,-609.5 293.58,-591.6 275.84,-578.39"/>
</g>
<!-- 17 -->
<g id="node17" class="node">
<title>17</title>
<ellipse fill="none" stroke="black" cx="316" cy="-560.38" rx="18" ry="18"/>
<text text-anchor="middle" x="316" y="-556.68" font-family="Times,serif" font-size="14.00">t</text>
</g>
<!-- 14&#45;&#45;17 -->
<g id="edge16" class="edge">
<title>14&#45;&#45;17</title>
<path fill="none" stroke="black" d="M339.97,-615.5C334.89,-604.04 328.07,-588.64 323.01,-577.2"/>
</g>
<!-- 20 -->
<g id="node20" class="node">
<title>20</title>
<polygon fill="none" stroke="green" points="406,-578.38 352,-578.38 352,-542.38 406,-542.38 406,-578.38"/>
<text text-anchor="middle" x="379" y="-556.68" font-family="Times,serif" font-size="14.00">,</text>
</g>
<!-- 14&#45;&#45;20 -->
<g id="edge19" class="edge">
<title>14&#45;&#45;20</title>
<path fill="none" stroke="black" d="M354.26,-615.5C359.28,-604.52 365.95,-589.94 371.1,-578.67"/>
</g>
<!-- 21 -->
<g id="node21" class="node">
<title>21</title>
<ellipse fill="none" stroke="black" cx="442" cy="-560.38" rx="18" ry="18"/>
<text text-anchor="middle" x="442" y="-556.68" font-family="Times,serif" font-size="14.00">t</text>
</g>
<!-- 14&#45;&#45;21 -->
<g id="edge20" class="edge">
<title>14&#45;&#45;21</title>
<path fill="none" stroke="black" d="M361.02,-621.05C378.98,-607.82 409.94,-585.01 427.92,-571.75"/>
</g>
<!-- 38 -->
<g id="node38" class="node">
<title>38</title>
<polygon fill="none" stroke="green" points="532,-578.38 478,-578.38 478,-542.38 532,-542.38 532,-578.38"/>
<text text-anchor="middle" x="505" y="-556.68" font-family="Times,serif" font-size="14.00">&gt;</text>
</g>
<!-- 14&#45;&#45;38 -->
<g id="edge37" class="edge">
<title>14&#45;&#45;38</title>
<path fill="none" stroke="black" d="M363.25,-624.51C386.7,-614.56 431.35,-595.44 469,-578.38 471.9,-577.07 474.91,-575.68 477.92,-574.28"/>
</g>
<!-- 18 -->
<g id="node18" class="node">
<title>18</title>
<ellipse fill="none" stroke="black" cx="276" cy="-469.98" rx="36.29" ry="36.29"/>
<text text-anchor="middle" x="276" y="-466.28" font-family="Times,serif" font-size="14.00">name</text>
</g>
<!-- 17&#45;&#45;18 -->
<g id="edge17" class="edge">
<title>17&#45;&#45;18</title>
<path fill="none" stroke="black" d="M308.85,-543.58C303.82,-532.45 296.9,-517.17 290.71,-503.49"/>
</g>
<!-- 19 -->
<g id="node19" class="node">
<title>19</title>
<polygon fill="none" stroke="green" points="282,-397.59 228,-397.59 228,-361.59 282,-361.59 282,-397.59"/>
<text text-anchor="middle" x="255" y="-375.89" font-family="Times,serif" font-size="14.00">Int</text>
</g>
<!-- 18&#45;&#45;19 -->
<g id="edge18" class="edge">
<title>18&#45;&#45;19</title>
<path fill="none" stroke="black" d="M267.76,-434.3C264.77,-421.72 261.53,-408.07 259.06,-397.68"/>
</g>
<!-- 22 -->
<g id="node22" class="node">
<title>22</title>
<ellipse fill="none" stroke="black" cx="462" cy="-469.98" rx="18" ry="18"/>
<text text-anchor="middle" x="462" y="-466.28" font-family="Times,serif" font-size="14.00">g</text>
</g>
<!-- 21&#45;&#45;22 -->
<g id="edge21" class="edge">
<title>21&#45;&#45;22</title>
<path fill="none" stroke="black" d="M445.76,-542.75C449.31,-527.05 454.62,-503.61 458.19,-487.84"/>
</g>
<!-- 23 -->
<g id="node23" class="node">
<title>23</title>
<polygon fill="none" stroke="green" points="354,-397.59 300,-397.59 300,-361.59 354,-361.59 354,-397.59"/>
<text text-anchor="middle" x="327" y="-375.89" font-family="Times,serif" font-size="14.00">Map</text>
</g>
<!-- 22&#45;&#45;23 -->
<g id="edge22" class="edge">
<title>22&#45;&#45;23</title>
<path fill="none" stroke="black" d="M447.3,-459.36C424.68,-444.54 381.03,-415.96 352.99,-397.61"/>
</g>
<!-- 24 -->
<g id="node24" class="node">
<title>24</title>
<polygon fill="none" stroke="green" points="426,-397.59 372,-397.59 372,-361.59 426,-361.59 426,-397.59"/>
<text text-anchor="middle" x="399" y="-375.89" font-family="Times,serif" font-size="14.00">&lt;</text>
</g>
<!-- 22&#45;&#45;24 -->
<g id="edge23" class="edge">
<title>22&#45;&#45;24</title>
<path fill="none" stroke="black" d="M451.88,-454.78C440.82,-439.26 423.1,-414.4 411.26,-397.79"/>
</g>
<!-- 25 -->
<g id="node25" class="node">
<title>25</title>
<ellipse fill="none" stroke="black" cx="462" cy="-379.59" rx="18" ry="18"/>
<text text-anchor="middle" x="462" y="-375.89" font-family="Times,serif" font-size="14.00">t</text>
</g>
<!-- 22&#45;&#45;25 -->
<g id="edge24" class="edge">
<title>22&#45;&#45;25</title>
<path fill="none" stroke="black" d="M462,-451.94C462,-436.39 462,-413.51 462,-397.88"/>
</g>
<!-- 28 -->
<g id="node28" class="node">
<title>28</title>
<polygon fill="none" stroke="green" points="552,-397.59 498,-397.59 498,-361.59 552,-361.59 552,-397.59"/>
<text text-anchor="middle" x="525" y="-375.89" font-family="Times,serif" font-size="14.00">,</text>
</g>
<!-- 22&#45;&#45;28 -->
<g id="edge27" class="edge">
<title>22&#45;&#45;28</title>
<path fill="none" stroke="black" d="M472.12,-454.78C483.18,-439.26 500.9,-414.4 512.74,-397.79"/>
</g>
<!-- 29 -->
<g id="node29" class="node">
<title>29</title>
<ellipse fill="none" stroke="black" cx="588" cy="-379.59" rx="18" ry="18"/>
<text text-anchor="middle" x="588" y="-375.89" font-family="Times,serif" font-size="14.00">t</text>
</g>
<!-- 22&#45;&#45;29 -->
<g id="edge28" class="edge">
<title>22&#45;&#45;29</title>
<path fill="none" stroke="black" d="M476.45,-458.84C500.76,-441.79 549.52,-407.58 573.71,-390.61"/>
</g>
<!-- 37 -->
<g id="node37" class="node">
<title>37</title>
<polygon fill="none" stroke="green" points="678,-397.59 624,-397.59 624,-361.59 678,-361.59 678,-397.59"/>
<text text-anchor="middle" x="651" y="-375.89" font-family="Times,serif" font-size="14.00">&gt;</text>
</g>
<!-- 22&#45;&#45;37 -->
<g id="edge36" class="edge">
<title>22&#45;&#45;37</title>
<path fill="none" stroke="black" d="M478.09,-461.5C505.99,-448.53 565.12,-421 615,-397.59 617.88,-396.24 620.88,-394.82 623.88,-393.41"/>
</g>
<!-- 26 -->
<g id="node26" class="node">
<title>26</title>
<ellipse fill="none" stroke="black" cx="450" cy="-289.19" rx="36.29" ry="36.29"/>
<text text-anchor="middle" x="450" y="-285.49" font-family="Times,serif" font-size="14.00">name</text>
</g>
<!-- 25&#45;&#45;26 -->
<g id="edge25" class="edge">
<title>25&#45;&#45;26</title>
<path fill="none" stroke="black" d="M459.69,-361.54C458.3,-351.31 456.48,-337.9 454.79,-325.48"/>
</g>
<!-- 27 -->
<g id="node27" class="node">
<title>27</title>
<polygon fill="none" stroke="green" points="475,-216.79 413,-216.79 413,-180.79 475,-180.79 475,-216.79"/>
<text text-anchor="middle" x="444" y="-195.09" font-family="Times,serif" font-size="14.00">String</text>
</g>
<!-- 26&#45;&#45;27 -->
<g id="edge26" class="edge">
<title>26&#45;&#45;27</title>
<path fill="none" stroke="black" d="M447.59,-252.75C446.76,-240.45 445.86,-227.21 445.17,-217.05"/>
</g>
<!-- 30 -->
<g id="node30" class="node">
<title>30</title>
<ellipse fill="none" stroke="black" cx="594" cy="-289.19" rx="18" ry="18"/>
<text text-anchor="middle" x="594" y="-285.49" font-family="Times,serif" font-size="14.00">g</text>
</g>
<!-- 29&#45;&#45;30 -->
<g id="edge29" class="edge">
<title>29&#45;&#45;30</title>
<path fill="none" stroke="black" d="M589.16,-361.54C590.22,-345.89 591.79,-322.82 592.85,-307.18"/>
</g>
<!-- 31 -->
<g id="node31" class="node">
<title>31</title>
<polygon fill="none" stroke="green" points="549,-216.79 493,-216.79 493,-180.79 549,-180.79 549,-216.79"/>
<text text-anchor="middle" x="521" y="-195.09" font-family="Times,serif" font-size="14.00">Array</text>
</g>
<!-- 30&#45;&#45;31 -->
<g id="edge30" class="edge">
<title>30&#45;&#45;31</title>
<path fill="none" stroke="black" d="M582.91,-274.76C570.15,-259.31 549.16,-233.89 535.21,-216.99"/>
</g>
<!-- 32 -->
<g id="node32" class="node">
<title>32</title>
<polygon fill="none" stroke="green" points="621,-216.79 567,-216.79 567,-180.79 621,-180.79 621,-216.79"/>
<text text-anchor="middle" x="594" y="-195.09" font-family="Times,serif" font-size="14.00">&lt;</text>
</g>
<!-- 30&#45;&#45;32 -->
<g id="edge31" class="edge">
<title>30&#45;&#45;32</title>
<path fill="none" stroke="black" d="M594,-271.15C594,-255.59 594,-232.72 594,-217.09"/>
</g>
<!-- 33 -->
<g id="node33" class="node">
<title>33</title>
<ellipse fill="none" stroke="black" cx="657" cy="-198.79" rx="18" ry="18"/>
<text text-anchor="middle" x="657" y="-195.09" font-family="Times,serif" font-size="14.00">t</text>
</g>
<!-- 30&#45;&#45;33 -->
<g id="edge32" class="edge">
<title>30&#45;&#45;33</title>
<path fill="none" stroke="black" d="M604.12,-273.99C615.88,-257.49 635.16,-230.44 646.9,-213.96"/>
</g>
<!-- 36 -->
<g id="node36" class="node">
<title>36</title>
<polygon fill="none" stroke="green" points="747,-216.79 693,-216.79 693,-180.79 747,-180.79 747,-216.79"/>
<text text-anchor="middle" x="720" y="-195.09" font-family="Times,serif" font-size="14.00">&gt;</text>
</g>
<!-- 30&#45;&#45;36 -->
<g id="edge35" class="edge">
<title>30&#45;&#45;36</title>
<path fill="none" stroke="black" d="M608.45,-278.05C629.66,-263.18 669.47,-235.24 695.35,-217.09"/>
</g>
<!-- 34 -->
<g id="node34" class="node">
<title>34</title>
<ellipse fill="none" stroke="black" cx="657" cy="-108.4" rx="36.29" ry="36.29"/>
<text text-anchor="middle" x="657" y="-104.7" font-family="Times,serif" font-size="14.00">name</text>
</g>
<!-- 33&#45;&#45;34 -->
<g id="edge33" class="edge">
<title>33&#45;&#45;34</title>
<path fill="none" stroke="black" d="M657,-180.75C657,-170.62 657,-157.37 657,-145.05"/>
</g>
<!-- 35 -->
<g id="node35" class="node">
<title>35</title>
<polygon fill="none" stroke="green" points="690.5,-36 623.5,-36 623.5,0 690.5,0 690.5,-36"/>
<text text-anchor="middle" x="657" y="-14.3" font-family="Times,serif" font-size="14.00">Double</text>
</g>
<!-- 34&#45;&#45;35 -->
<g id="edge34" class="edge">
<title>34&#45;&#45;35</title>
<path fill="none" stroke="black" d="M657,-71.95C657,-59.66 657,-46.42 657,-36.25"/>
</g>
</g>
</svg>
