<?xml version="1.0" encoding="UTF-8" standalone="no"?>
<!DOCTYPE svg PUBLIC "-//W3C//DTD SVG 1.1//EN"
 "http://www.w3.org/Graphics/SVG/1.1/DTD/svg11.dtd">
<!-- Generated by graphviz version 2.43.0 (0)
 -->
<!-- Title: TranslatorGenerator Pages: 1 -->
<svg width="1049pt" height="905pt"
 viewBox="0.00 0.00 1049.10 905.25" xmlns="http://www.w3.org/2000/svg" xmlns:xlink="http://www.w3.org/1999/xlink">
<g id="graph0" class="graph" transform="scale(1 1) rotate(0) translate(4 901.25)">
<title>TranslatorGenerator</title>
<polygon fill="white" stroke="transparent" points="-4,4 -4,-901.25 1045.1,-901.25 1045.1,4 -4,4"/>
<!-- 1 -->
<g id="node1" class="node">
<title>1</title>
<ellipse fill="none" stroke="black" cx="154" cy="-879.25" rx="18" ry="18"/>
<text text-anchor="middle" x="154" y="-875.55" font-family="Times,serif" font-size="14.00">e</text>
</g>
<!-- 2 -->
<g id="node2" class="node">
<title>2</title>
<ellipse fill="none" stroke="black" cx="109" cy="-777.15" rx="18" ry="18"/>
<text text-anchor="middle" x="109" y="-773.45" font-family="Times,serif" font-size="14.00">t</text>
</g>
<!-- 1&#45;&#45;2 -->
<g id="edge1" class="edge">
<title>1&#45;&#45;2</title>
<path fill="none" stroke="black" d="M146.97,-862.61C138.56,-843.91 124.58,-812.81 116.13,-794.01"/>
</g>
<!-- 7 -->
<g id="node7" class="node">
<title>7</title>
<ellipse fill="none" stroke="black" cx="231" cy="-777.15" rx="48.19" ry="48.19"/>
<text text-anchor="middle" x="231" y="-773.45" font-family="Times,serif" font-size="14.00">e_prime</text>
</g>
<!-- 1&#45;&#45;7 -->
<g id="edge6" class="edge">
<title>1&#45;&#45;7</title>
<path fill="none" stroke="black" d="M164.71,-864.33C174.38,-851.76 189.05,-832.68 202.14,-815.67"/>
</g>
<!-- 3 -->
<g id="node3" class="node">
<title>3</title>
<ellipse fill="none" stroke="black" cx="27" cy="-644.96" rx="18" ry="18"/>
<text text-anchor="middle" x="27" y="-641.26" font-family="Times,serif" font-size="14.00">f</text>
</g>
<!-- 2&#45;&#45;3 -->
<g id="edge2" class="edge">
<title>2&#45;&#45;3</title>
<path fill="none" stroke="black" d="M99.18,-761.92C87.95,-745.52 69.17,-717.65 54,-693.06 47.47,-682.47 40.5,-670.28 35.27,-660.95"/>
</g>
<!-- 5 -->
<g id="node5" class="node">
<title>5</title>
<ellipse fill="none" stroke="black" cx="109" cy="-644.96" rx="46.29" ry="46.29"/>
<text text-anchor="middle" x="109" y="-641.26" font-family="Times,serif" font-size="14.00">t_prime</text>
</g>
<!-- 2&#45;&#45;5 -->
<g id="edge4" class="edge">
<title>2&#45;&#45;5</title>
<path fill="none" stroke="black" d="M109,-759.13C109,-741.97 109,-714.73 109,-691.28"/>
</g>
<!-- 4 -->
<g id="node4" class="node">
<title>4</title>
<polygon fill="none" stroke="green" points="54,-530.77 0,-530.77 0,-494.77 54,-494.77 54,-530.77"/>
<text text-anchor="middle" x="27" y="-509.07" font-family="Times,serif" font-size="14.00">1</text>
</g>
<!-- 3&#45;&#45;4 -->
<g id="edge3" class="edge">
<title>3&#45;&#45;4</title>
<path fill="none" stroke="black" d="M27,-626.94C27,-601.99 27,-555.75 27,-530.79"/>
</g>
<!-- 6 -->
<g id="node6" class="node">
<title>6</title>
<polygon fill="none" stroke="green" points="137.5,-530.77 80.5,-530.77 80.5,-494.77 137.5,-494.77 137.5,-530.77"/>
<text text-anchor="middle" x="109" y="-509.07" font-family="Times,serif" font-size="14.00">[EPS]</text>
</g>
<!-- 5&#45;&#45;6 -->
<g id="edge5" class="edge">
<title>5&#45;&#45;6</title>
<path fill="none" stroke="black" d="M109,-598.79C109,-575.44 109,-548.3 109,-531.08"/>
</g>
<!-- 8 -->
<g id="node8" class="node">
<title>8</title>
<polygon fill="none" stroke="green" points="227,-662.96 173,-662.96 173,-626.96 227,-626.96 227,-662.96"/>
<text text-anchor="middle" x="200" y="-641.26" font-family="Times,serif" font-size="14.00">+</text>
</g>
<!-- 7&#45;&#45;8 -->
<g id="edge7" class="edge">
<title>7&#45;&#45;8</title>
<path fill="none" stroke="black" d="M220.07,-730.25C214.53,-706.97 208.13,-680.09 204.07,-663.07"/>
</g>
<!-- 9 -->
<g id="node9" class="node">
<title>9</title>
<ellipse fill="none" stroke="black" cx="263" cy="-644.96" rx="18" ry="18"/>
<text text-anchor="middle" x="263" y="-641.26" font-family="Times,serif" font-size="14.00">t</text>
</g>
<!-- 7&#45;&#45;9 -->
<g id="edge8" class="edge">
<title>7&#45;&#45;9</title>
<path fill="none" stroke="black" d="M242.28,-730.25C248.04,-706.83 254.69,-679.76 258.87,-662.75"/>
</g>
<!-- 22 -->
<g id="node22" class="node">
<title>22</title>
<ellipse fill="none" stroke="black" cx="523" cy="-644.96" rx="48.19" ry="48.19"/>
<text text-anchor="middle" x="523" y="-641.26" font-family="Times,serif" font-size="14.00">e_prime</text>
</g>
<!-- 7&#45;&#45;22 -->
<g id="edge21" class="edge">
<title>7&#45;&#45;22</title>
<path fill="none" stroke="black" d="M274.72,-756.66C329.76,-732.12 423.8,-690.19 478.99,-665.59"/>
</g>
<!-- 10 -->
<g id="node10" class="node">
<title>10</title>
<ellipse fill="none" stroke="black" cx="177" cy="-512.77" rx="18" ry="18"/>
<text text-anchor="middle" x="177" y="-509.07" font-family="Times,serif" font-size="14.00">f</text>
</g>
<!-- 9&#45;&#45;10 -->
<g id="edge9" class="edge">
<title>9&#45;&#45;10</title>
<path fill="none" stroke="black" d="M255.01,-628.79C249.89,-619.4 242.93,-607.2 236,-596.87 224.71,-580.03 219.8,-577.34 208,-560.87 200.36,-550.2 192.23,-537.8 186.21,-528.4"/>
</g>
<!-- 12 -->
<g id="node12" class="node">
<title>12</title>
<ellipse fill="none" stroke="black" cx="263" cy="-512.77" rx="46.29" ry="46.29"/>
<text text-anchor="middle" x="263" y="-509.07" font-family="Times,serif" font-size="14.00">t_prime</text>
</g>
<!-- 9&#45;&#45;12 -->
<g id="edge11" class="edge">
<title>9&#45;&#45;12</title>
<path fill="none" stroke="black" d="M263,-626.94C263,-609.78 263,-582.54 263,-559.09"/>
</g>
<!-- 11 -->
<g id="node11" class="node">
<title>11</title>
<polygon fill="none" stroke="green" points="155,-398.58 101,-398.58 101,-362.58 155,-362.58 155,-398.58"/>
<text text-anchor="middle" x="128" y="-376.88" font-family="Times,serif" font-size="14.00">2</text>
</g>
<!-- 10&#45;&#45;11 -->
<g id="edge10" class="edge">
<title>10&#45;&#45;11</title>
<path fill="none" stroke="black" d="M170.89,-495.54C161.61,-470.87 144.01,-424.12 134.5,-398.84"/>
</g>
<!-- 13 -->
<g id="node13" class="node">
<title>13</title>
<polygon fill="none" stroke="green" points="227,-398.58 173,-398.58 173,-362.58 227,-362.58 227,-398.58"/>
<text text-anchor="middle" x="200" y="-376.88" font-family="Times,serif" font-size="14.00">*</text>
</g>
<!-- 12&#45;&#45;13 -->
<g id="edge12" class="edge">
<title>12&#45;&#45;13</title>
<path fill="none" stroke="black" d="M243.24,-470.93C231.48,-446.62 217.16,-417.05 208.32,-398.76"/>
</g>
<!-- 14 -->
<g id="node14" class="node">
<title>14</title>
<ellipse fill="none" stroke="black" cx="263" cy="-380.58" rx="18" ry="18"/>
<text text-anchor="middle" x="263" y="-376.88" font-family="Times,serif" font-size="14.00">f</text>
</g>
<!-- 12&#45;&#45;14 -->
<g id="edge13" class="edge">
<title>12&#45;&#45;14</title>
<path fill="none" stroke="black" d="M263,-466.6C263,-443.25 263,-416.1 263,-398.89"/>
</g>
<!-- 16 -->
<g id="node16" class="node">
<title>16</title>
<ellipse fill="none" stroke="black" cx="345" cy="-380.58" rx="46.29" ry="46.29"/>
<text text-anchor="middle" x="345" y="-376.88" font-family="Times,serif" font-size="14.00">t_prime</text>
</g>
<!-- 12&#45;&#45;16 -->
<g id="edge15" class="edge">
<title>12&#45;&#45;16</title>
<path fill="none" stroke="black" d="M287.16,-473.41C297.74,-456.61 310.14,-436.93 320.73,-420.11"/>
</g>
<!-- 15 -->
<g id="node15" class="node">
<title>15</title>
<polygon fill="none" stroke="green" points="237,-266.39 183,-266.39 183,-230.39 237,-230.39 237,-266.39"/>
<text text-anchor="middle" x="210" y="-244.69" font-family="Times,serif" font-size="14.00">3</text>
</g>
<!-- 14&#45;&#45;15 -->
<g id="edge14" class="edge">
<title>14&#45;&#45;15</title>
<path fill="none" stroke="black" d="M256.5,-363.61C246.49,-339.04 227.39,-292.11 217.06,-266.73"/>
</g>
<!-- 17 -->
<g id="node17" class="node">
<title>17</title>
<polygon fill="none" stroke="green" points="309,-266.39 255,-266.39 255,-230.39 309,-230.39 309,-266.39"/>
<text text-anchor="middle" x="282" y="-244.69" font-family="Times,serif" font-size="14.00">/</text>
</g>
<!-- 16&#45;&#45;17 -->
<g id="edge16" class="edge">
<title>16&#45;&#45;17</title>
<path fill="none" stroke="black" d="M325.24,-338.74C313.48,-314.43 299.16,-284.85 290.32,-266.57"/>
</g>
<!-- 18 -->
<g id="node18" class="node">
<title>18</title>
<ellipse fill="none" stroke="black" cx="345" cy="-248.39" rx="18" ry="18"/>
<text text-anchor="middle" x="345" y="-244.69" font-family="Times,serif" font-size="14.00">f</text>
</g>
<!-- 16&#45;&#45;18 -->
<g id="edge17" class="edge">
<title>16&#45;&#45;18</title>
<path fill="none" stroke="black" d="M345,-334.41C345,-311.06 345,-283.91 345,-266.7"/>
</g>
<!-- 20 -->
<g id="node20" class="node">
<title>20</title>
<ellipse fill="none" stroke="black" cx="427" cy="-248.39" rx="46.29" ry="46.29"/>
<text text-anchor="middle" x="427" y="-244.69" font-family="Times,serif" font-size="14.00">t_prime</text>
</g>
<!-- 16&#45;&#45;20 -->
<g id="edge19" class="edge">
<title>16&#45;&#45;20</title>
<path fill="none" stroke="black" d="M369.16,-341.22C379.74,-324.42 392.14,-304.74 402.73,-287.92"/>
</g>
<!-- 19 -->
<g id="node19" class="node">
<title>19</title>
<polygon fill="none" stroke="green" points="372,-136.15 318,-136.15 318,-100.15 372,-100.15 372,-136.15"/>
<text text-anchor="middle" x="345" y="-114.45" font-family="Times,serif" font-size="14.00">4</text>
</g>
<!-- 18&#45;&#45;19 -->
<g id="edge18" class="edge">
<title>18&#45;&#45;19</title>
<path fill="none" stroke="black" d="M345,-230.36C345,-205.83 345,-160.81 345,-136.25"/>
</g>
<!-- 21 -->
<g id="node21" class="node">
<title>21</title>
<polygon fill="none" stroke="green" points="455.5,-136.15 398.5,-136.15 398.5,-100.15 455.5,-100.15 455.5,-136.15"/>
<text text-anchor="middle" x="427" y="-114.45" font-family="Times,serif" font-size="14.00">[EPS]</text>
</g>
<!-- 20&#45;&#45;21 -->
<g id="edge20" class="edge">
<title>20&#45;&#45;21</title>
<path fill="none" stroke="black" d="M427,-202.17C427,-179.39 427,-153.1 427,-136.31"/>
</g>
<!-- 23 -->
<g id="node23" class="node">
<title>23</title>
<polygon fill="none" stroke="green" points="519,-530.77 465,-530.77 465,-494.77 519,-494.77 519,-530.77"/>
<text text-anchor="middle" x="492" y="-509.07" font-family="Times,serif" font-size="14.00">&#45;</text>
</g>
<!-- 22&#45;&#45;23 -->
<g id="edge22" class="edge">
<title>22&#45;&#45;23</title>
<path fill="none" stroke="black" d="M512.07,-598.06C506.53,-574.78 500.13,-547.9 496.07,-530.88"/>
</g>
<!-- 24 -->
<g id="node24" class="node">
<title>24</title>
<ellipse fill="none" stroke="black" cx="555" cy="-512.77" rx="18" ry="18"/>
<text text-anchor="middle" x="555" y="-509.07" font-family="Times,serif" font-size="14.00">t</text>
</g>
<!-- 22&#45;&#45;24 -->
<g id="edge23" class="edge">
<title>22&#45;&#45;24</title>
<path fill="none" stroke="black" d="M534.28,-598.06C540.04,-574.63 546.69,-547.57 550.87,-530.56"/>
</g>
<!-- 29 -->
<g id="node29" class="node">
<title>29</title>
<ellipse fill="none" stroke="black" cx="718" cy="-512.77" rx="48.19" ry="48.19"/>
<text text-anchor="middle" x="718" y="-509.07" font-family="Times,serif" font-size="14.00">e_prime</text>
</g>
<!-- 22&#45;&#45;29 -->
<g id="edge28" class="edge">
<title>22&#45;&#45;29</title>
<path fill="none" stroke="black" d="M562.93,-617.3C596.69,-594.76 644.8,-562.64 678.46,-540.17"/>
</g>
<!-- 25 -->
<g id="node25" class="node">
<title>25</title>
<ellipse fill="none" stroke="black" cx="514" cy="-380.58" rx="18" ry="18"/>
<text text-anchor="middle" x="514" y="-376.88" font-family="Times,serif" font-size="14.00">f</text>
</g>
<!-- 24&#45;&#45;25 -->
<g id="edge24" class="edge">
<title>24&#45;&#45;25</title>
<path fill="none" stroke="black" d="M549.81,-495.28C541.92,-470.24 527.01,-422.9 519.15,-397.93"/>
</g>
<!-- 27 -->
<g id="node27" class="node">
<title>27</title>
<ellipse fill="none" stroke="black" cx="596" cy="-380.58" rx="46.29" ry="46.29"/>
<text text-anchor="middle" x="596" y="-376.88" font-family="Times,serif" font-size="14.00">t_prime</text>
</g>
<!-- 24&#45;&#45;27 -->
<g id="edge26" class="edge">
<title>24&#45;&#45;27</title>
<path fill="none" stroke="black" d="M560.19,-495.28C565.75,-477.63 574.8,-448.89 582.41,-424.73"/>
</g>
<!-- 26 -->
<g id="node26" class="node">
<title>26</title>
<polygon fill="none" stroke="green" points="545,-266.39 491,-266.39 491,-230.39 545,-230.39 545,-266.39"/>
<text text-anchor="middle" x="518" y="-244.69" font-family="Times,serif" font-size="14.00">2</text>
</g>
<!-- 25&#45;&#45;26 -->
<g id="edge25" class="edge">
<title>25&#45;&#45;26</title>
<path fill="none" stroke="black" d="M514.52,-362.56C515.29,-337.61 516.71,-291.37 517.48,-266.41"/>
</g>
<!-- 28 -->
<g id="node28" class="node">
<title>28</title>
<polygon fill="none" stroke="green" points="624.5,-266.39 567.5,-266.39 567.5,-230.39 624.5,-230.39 624.5,-266.39"/>
<text text-anchor="middle" x="596" y="-244.69" font-family="Times,serif" font-size="14.00">[EPS]</text>
</g>
<!-- 27&#45;&#45;28 -->
<g id="edge27" class="edge">
<title>27&#45;&#45;28</title>
<path fill="none" stroke="black" d="M596,-334.41C596,-311.06 596,-283.91 596,-266.7"/>
</g>
<!-- 30 -->
<g id="node30" class="node">
<title>30</title>
<polygon fill="none" stroke="green" points="714,-398.58 660,-398.58 660,-362.58 714,-362.58 714,-398.58"/>
<text text-anchor="middle" x="687" y="-376.88" font-family="Times,serif" font-size="14.00">&#45;</text>
</g>
<!-- 29&#45;&#45;30 -->
<g id="edge29" class="edge">
<title>29&#45;&#45;30</title>
<path fill="none" stroke="black" d="M707.07,-465.87C701.53,-442.59 695.13,-415.71 691.07,-398.69"/>
</g>
<!-- 31 -->
<g id="node31" class="node">
<title>31</title>
<ellipse fill="none" stroke="black" cx="750" cy="-380.58" rx="18" ry="18"/>
<text text-anchor="middle" x="750" y="-376.88" font-family="Times,serif" font-size="14.00">t</text>
</g>
<!-- 29&#45;&#45;31 -->
<g id="edge30" class="edge">
<title>29&#45;&#45;31</title>
<path fill="none" stroke="black" d="M729.28,-465.87C735.04,-442.44 741.69,-415.37 745.87,-398.37"/>
</g>
<!-- 36 -->
<g id="node36" class="node">
<title>36</title>
<ellipse fill="none" stroke="black" cx="872" cy="-380.58" rx="48.19" ry="48.19"/>
<text text-anchor="middle" x="872" y="-376.88" font-family="Times,serif" font-size="14.00">e_prime</text>
</g>
<!-- 29&#45;&#45;36 -->
<g id="edge35" class="edge">
<title>29&#45;&#45;36</title>
<path fill="none" stroke="black" d="M754.5,-480.92C779.04,-460.16 811.27,-432.92 835.77,-412.21"/>
</g>
<!-- 32 -->
<g id="node32" class="node">
<title>32</title>
<ellipse fill="none" stroke="black" cx="668" cy="-248.39" rx="18" ry="18"/>
<text text-anchor="middle" x="668" y="-244.69" font-family="Times,serif" font-size="14.00">f</text>
</g>
<!-- 31&#45;&#45;32 -->
<g id="edge31" class="edge">
<title>31&#45;&#45;32</title>
<path fill="none" stroke="black" d="M742.01,-364.41C736.89,-355.01 729.93,-342.82 723,-332.48 711.71,-315.65 706.29,-313.32 695,-296.48 688.07,-286.15 681.11,-273.95 675.99,-264.56"/>
</g>
<!-- 34 -->
<g id="node34" class="node">
<title>34</title>
<ellipse fill="none" stroke="black" cx="750" cy="-248.39" rx="46.29" ry="46.29"/>
<text text-anchor="middle" x="750" y="-244.69" font-family="Times,serif" font-size="14.00">t_prime</text>
</g>
<!-- 31&#45;&#45;34 -->
<g id="edge33" class="edge">
<title>31&#45;&#45;34</title>
<path fill="none" stroke="black" d="M750,-362.56C750,-345.4 750,-318.16 750,-294.71"/>
</g>
<!-- 33 -->
<g id="node33" class="node">
<title>33</title>
<polygon fill="none" stroke="green" points="695,-136.15 641,-136.15 641,-100.15 695,-100.15 695,-136.15"/>
<text text-anchor="middle" x="668" y="-114.45" font-family="Times,serif" font-size="14.00">3</text>
</g>
<!-- 32&#45;&#45;33 -->
<g id="edge32" class="edge">
<title>32&#45;&#45;33</title>
<path fill="none" stroke="black" d="M668,-230.36C668,-205.83 668,-160.81 668,-136.25"/>
</g>
<!-- 35 -->
<g id="node35" class="node">
<title>35</title>
<polygon fill="none" stroke="green" points="778.5,-136.15 721.5,-136.15 721.5,-100.15 778.5,-100.15 778.5,-136.15"/>
<text text-anchor="middle" x="750" y="-114.45" font-family="Times,serif" font-size="14.00">[EPS]</text>
</g>
<!-- 34&#45;&#45;35 -->
<g id="edge34" class="edge">
<title>34&#45;&#45;35</title>
<path fill="none" stroke="black" d="M750,-202.17C750,-179.39 750,-153.1 750,-136.31"/>
</g>
<!-- 37 -->
<g id="node37" class="node">
<title>37</title>
<polygon fill="none" stroke="green" points="868,-266.39 814,-266.39 814,-230.39 868,-230.39 868,-266.39"/>
<text text-anchor="middle" x="841" y="-244.69" font-family="Times,serif" font-size="14.00">+</text>
</g>
<!-- 36&#45;&#45;37 -->
<g id="edge36" class="edge">
<title>36&#45;&#45;37</title>
<path fill="none" stroke="black" d="M861.07,-333.68C855.53,-310.4 849.13,-283.52 845.07,-266.49"/>
</g>
<!-- 38 -->
<g id="node38" class="node">
<title>38</title>
<ellipse fill="none" stroke="black" cx="904" cy="-248.39" rx="18" ry="18"/>
<text text-anchor="middle" x="904" y="-244.69" font-family="Times,serif" font-size="14.00">t</text>
</g>
<!-- 36&#45;&#45;38 -->
<g id="edge37" class="edge">
<title>36&#45;&#45;38</title>
<path fill="none" stroke="black" d="M883.28,-333.68C889.04,-310.25 895.69,-283.18 899.87,-266.17"/>
</g>
<!-- 43 -->
<g id="node43" class="node">
<title>43</title>
<ellipse fill="none" stroke="black" cx="993" cy="-248.39" rx="48.19" ry="48.19"/>
<text text-anchor="middle" x="993" y="-244.69" font-family="Times,serif" font-size="14.00">e_prime</text>
</g>
<!-- 36&#45;&#45;43 -->
<g id="edge42" class="edge">
<title>36&#45;&#45;43</title>
<path fill="none" stroke="black" d="M904.43,-344.69C921.79,-326.01 943.11,-303.07 960.48,-284.37"/>
</g>
<!-- 39 -->
<g id="node39" class="node">
<title>39</title>
<ellipse fill="none" stroke="black" cx="822" cy="-118.15" rx="18" ry="18"/>
<text text-anchor="middle" x="822" y="-114.45" font-family="Times,serif" font-size="14.00">f</text>
</g>
<!-- 38&#45;&#45;39 -->
<g id="edge38" class="edge">
<title>38&#45;&#45;39</title>
<path fill="none" stroke="black" d="M896.01,-232.22C890.89,-222.82 883.93,-210.62 877,-200.29 865.71,-183.46 860.45,-181.02 849,-164.29 842.4,-154.64 835.65,-143.36 830.55,-134.48"/>
</g>
<!-- 41 -->
<g id="node41" class="node">
<title>41</title>
<ellipse fill="none" stroke="black" cx="904" cy="-118.15" rx="46.29" ry="46.29"/>
<text text-anchor="middle" x="904" y="-114.45" font-family="Times,serif" font-size="14.00">t_prime</text>
</g>
<!-- 38&#45;&#45;41 -->
<g id="edge40" class="edge">
<title>38&#45;&#45;41</title>
<path fill="none" stroke="black" d="M904,-230.36C904,-213.6 904,-187.27 904,-164.44"/>
</g>
<!-- 40 -->
<g id="node40" class="node">
<title>40</title>
<polygon fill="none" stroke="green" points="849,-36 795,-36 795,0 849,0 849,-36"/>
<text text-anchor="middle" x="822" y="-14.3" font-family="Times,serif" font-size="14.00">50</text>
</g>
<!-- 39&#45;&#45;40 -->
<g id="edge39" class="edge">
<title>39&#45;&#45;40</title>
<path fill="none" stroke="black" d="M822,-100.05C822,-82.15 822,-54.18 822,-36.23"/>
</g>
<!-- 42 -->
<g id="node42" class="node">
<title>42</title>
<polygon fill="none" stroke="green" points="932.5,-36 875.5,-36 875.5,0 932.5,0 932.5,-36"/>
<text text-anchor="middle" x="904" y="-14.3" font-family="Times,serif" font-size="14.00">[EPS]</text>
</g>
<!-- 41&#45;&#45;42 -->
<g id="edge41" class="edge">
<title>41&#45;&#45;42</title>
<path fill="none" stroke="black" d="M904,-71.81C904,-59.15 904,-46.16 904,-36.23"/>
</g>
<!-- 44 -->
<g id="node44" class="node">
<title>44</title>
<polygon fill="none" stroke="green" points="1025.5,-136.15 968.5,-136.15 968.5,-100.15 1025.5,-100.15 1025.5,-136.15"/>
<text text-anchor="middle" x="997" y="-114.45" font-family="Times,serif" font-size="14.00">[EPS]</text>
</g>
<!-- 43&#45;&#45;44 -->
<g id="edge43" class="edge">
<title>43&#45;&#45;44</title>
<path fill="none" stroke="black" d="M994.48,-200C995.17,-177.74 995.96,-152.58 996.46,-136.33"/>
</g>
</g>
</svg>
