<?xml version="1.0" encoding="UTF-8" standalone="no"?>
<!DOCTYPE svg PUBLIC "-//W3C//DTD SVG 1.1//EN"
 "http://www.w3.org/Graphics/SVG/1.1/DTD/svg11.dtd">
<!-- Generated by graphviz version 2.43.0 (0)
 -->
<!-- Title: TranslatorGenerator Pages: 1 -->
<svg width="253pt" height="376pt"
 viewBox="0.00 0.00 253.10 376.48" xmlns="http://www.w3.org/2000/svg" xmlns:xlink="http://www.w3.org/1999/xlink">
<g id="graph0" class="graph" transform="scale(1 1) rotate(0) translate(4 372.48)">
<title>TranslatorGenerator</title>
<polygon fill="white" stroke="transparent" points="-4,4 -4,-372.48 249.1,-372.48 249.1,4 -4,4"/>
<!-- 1 -->
<g id="node1" class="node">
<title>1</title>
<ellipse fill="none" stroke="black" cx="151" cy="-350.48" rx="18" ry="18"/>
<text text-anchor="middle" x="151" y="-346.78" font-family="Times,serif" font-size="14.00">e</text>
</g>
<!-- 2 -->
<g id="node2" class="node">
<title>2</title>
<ellipse fill="none" stroke="black" cx="109" cy="-248.39" rx="18" ry="18"/>
<text text-anchor="middle" x="109" y="-244.69" font-family="Times,serif" font-size="14.00">t</text>
</g>
<!-- 1&#45;&#45;2 -->
<g id="edge1" class="edge">
<title>1&#45;&#45;2</title>
<path fill="none" stroke="black" d="M144.25,-333.4C136.41,-314.72 123.56,-284.09 115.73,-265.43"/>
</g>
<!-- 7 -->
<g id="node7" class="node">
<title>7</title>
<ellipse fill="none" stroke="black" cx="197" cy="-248.39" rx="48.19" ry="48.19"/>
<text text-anchor="middle" x="197" y="-244.69" font-family="Times,serif" font-size="14.00">e_prime</text>
</g>
<!-- 1&#45;&#45;7 -->
<g id="edge6" class="edge">
<title>1&#45;&#45;7</title>
<path fill="none" stroke="black" d="M158.19,-333.84C163.29,-322.74 170.41,-307.25 177.16,-292.56"/>
</g>
<!-- 3 -->
<g id="node3" class="node">
<title>3</title>
<ellipse fill="none" stroke="black" cx="27" cy="-118.15" rx="18" ry="18"/>
<text text-anchor="middle" x="27" y="-114.45" font-family="Times,serif" font-size="14.00">f</text>
</g>
<!-- 2&#45;&#45;3 -->
<g id="edge2" class="edge">
<title>2&#45;&#45;3</title>
<path fill="none" stroke="black" d="M99.26,-233.11C88.11,-216.65 69.39,-188.74 54,-164.29 47.77,-154.4 41.02,-143.11 35.83,-134.3"/>
</g>
<!-- 5 -->
<g id="node5" class="node">
<title>5</title>
<ellipse fill="none" stroke="black" cx="109" cy="-118.15" rx="46.29" ry="46.29"/>
<text text-anchor="middle" x="109" y="-114.45" font-family="Times,serif" font-size="14.00">t_prime</text>
</g>
<!-- 2&#45;&#45;5 -->
<g id="edge4" class="edge">
<title>2&#45;&#45;5</title>
<path fill="none" stroke="black" d="M109,-230.36C109,-213.6 109,-187.27 109,-164.44"/>
</g>
<!-- 4 -->
<g id="node4" class="node">
<title>4</title>
<polygon fill="none" stroke="green" points="54,-36 0,-36 0,0 54,0 54,-36"/>
<text text-anchor="middle" x="27" y="-14.3" font-family="Times,serif" font-size="14.00">42</text>
</g>
<!-- 3&#45;&#45;4 -->
<g id="edge3" class="edge">
<title>3&#45;&#45;4</title>
<path fill="none" stroke="black" d="M27,-100.05C27,-82.15 27,-54.18 27,-36.23"/>
</g>
<!-- 6 -->
<g id="node6" class="node">
<title>6</title>
<polygon fill="none" stroke="green" points="137.5,-36 80.5,-36 80.5,0 137.5,0 137.5,-36"/>
<text text-anchor="middle" x="109" y="-14.3" font-family="Times,serif" font-size="14.00">[EPS]</text>
</g>
<!-- 5&#45;&#45;6 -->
<g id="edge5" class="edge">
<title>5&#45;&#45;6</title>
<path fill="none" stroke="black" d="M109,-71.81C109,-59.15 109,-46.16 109,-36.23"/>
</g>
<!-- 8 -->
<g id="node8" class="node">
<title>8</title>
<polygon fill="none" stroke="green" points="230.5,-136.15 173.5,-136.15 173.5,-100.15 230.5,-100.15 230.5,-136.15"/>
<text text-anchor="middle" x="202" y="-114.45" font-family="Times,serif" font-size="14.00">[EPS]</text>
</g>
<!-- 7&#45;&#45;8 -->
<g id="edge7" class="edge">
<title>7&#45;&#45;8</title>
<path fill="none" stroke="black" d="M198.85,-200C199.72,-177.74 200.7,-152.58 201.33,-136.33"/>
</g>
</g>
</svg>
