<?xml version="1.0" encoding="UTF-8" standalone="no"?>
<!DOCTYPE svg PUBLIC "-//W3C//DTD SVG 1.1//EN"
 "http://www.w3.org/Graphics/SVG/1.1/DTD/svg11.dtd">
<!-- Generated by graphviz version 2.43.0 (0)
 -->
<!-- Title: TranslatorGenerator Pages: 1 -->
<svg width="1512pt" height="1755pt"
 viewBox="0.00 0.00 1512.15 1754.80" xmlns="http://www.w3.org/2000/svg" xmlns:xlink="http://www.w3.org/1999/xlink">
<g id="graph0" class="graph" transform="scale(1 1) rotate(0) translate(4 1750.8)">
<title>TranslatorGenerator</title>
<polygon fill="white" stroke="transparent" points="-4,4 -4,-1750.8 1508.15,-1750.8 1508.15,4 -4,4"/>
<!-- 1 -->
<g id="node1" class="node">
<title>1</title>
<ellipse fill="none" stroke="black" cx="274" cy="-1728.8" rx="18" ry="18"/>
<text text-anchor="middle" x="274" y="-1725.1" font-family="Times,serif" font-size="14.00">e</text>
</g>
<!-- 2 -->
<g id="node2" class="node">
<title>2</title>
<ellipse fill="none" stroke="black" cx="202" cy="-1626.7" rx="18" ry="18"/>
<text text-anchor="middle" x="202" y="-1623" font-family="Times,serif" font-size="14.00">t</text>
</g>
<!-- 1&#45;&#45;2 -->
<g id="edge1" class="edge">
<title>1&#45;&#45;2</title>
<path fill="none" stroke="black" d="M263.68,-1713.46C249.92,-1694.32 225.7,-1660.65 212.06,-1641.7"/>
</g>
<!-- 10 -->
<g id="node10" class="node">
<title>10</title>
<ellipse fill="none" stroke="black" cx="343" cy="-1626.7" rx="48.19" ry="48.19"/>
<text text-anchor="middle" x="343" y="-1623" font-family="Times,serif" font-size="14.00">e_prime</text>
</g>
<!-- 1&#45;&#45;10 -->
<g id="edge9" class="edge">
<title>1&#45;&#45;10</title>
<path fill="none" stroke="black" d="M283.89,-1713.46C292.31,-1701.24 304.81,-1683.1 316.15,-1666.65"/>
</g>
<!-- 3 -->
<g id="node3" class="node">
<title>3</title>
<ellipse fill="none" stroke="black" cx="109" cy="-1494.51" rx="18" ry="18"/>
<text text-anchor="middle" x="109" y="-1490.81" font-family="Times,serif" font-size="14.00">f</text>
</g>
<!-- 2&#45;&#45;3 -->
<g id="edge2" class="edge">
<title>2&#45;&#45;3</title>
<path fill="none" stroke="black" d="M191.87,-1611.52C173.98,-1586.48 137,-1534.71 119.12,-1509.68"/>
</g>
<!-- 8 -->
<g id="node8" class="node">
<title>8</title>
<ellipse fill="none" stroke="black" cx="202" cy="-1494.51" rx="46.29" ry="46.29"/>
<text text-anchor="middle" x="202" y="-1490.81" font-family="Times,serif" font-size="14.00">t_prime</text>
</g>
<!-- 2&#45;&#45;8 -->
<g id="edge7" class="edge">
<title>2&#45;&#45;8</title>
<path fill="none" stroke="black" d="M202,-1608.68C202,-1591.52 202,-1564.28 202,-1540.83"/>
</g>
<!-- 4 -->
<g id="node4" class="node">
<title>4</title>
<ellipse fill="none" stroke="black" cx="27" cy="-1362.32" rx="18" ry="18"/>
<text text-anchor="middle" x="27" y="-1358.62" font-family="Times,serif" font-size="14.00">p</text>
</g>
<!-- 3&#45;&#45;4 -->
<g id="edge3" class="edge">
<title>3&#45;&#45;4</title>
<path fill="none" stroke="black" d="M99.18,-1479.28C87.95,-1462.88 69.17,-1435.01 54,-1410.42 47.47,-1399.83 40.5,-1387.64 35.27,-1378.31"/>
</g>
<!-- 6 -->
<g id="node6" class="node">
<title>6</title>
<ellipse fill="none" stroke="black" cx="109" cy="-1362.32" rx="46.29" ry="46.29"/>
<text text-anchor="middle" x="109" y="-1358.62" font-family="Times,serif" font-size="14.00">f_prime</text>
</g>
<!-- 3&#45;&#45;6 -->
<g id="edge5" class="edge">
<title>3&#45;&#45;6</title>
<path fill="none" stroke="black" d="M109,-1476.49C109,-1459.33 109,-1432.09 109,-1408.64"/>
</g>
<!-- 5 -->
<g id="node5" class="node">
<title>5</title>
<polygon fill="none" stroke="green" points="54,-1250.08 0,-1250.08 0,-1214.08 54,-1214.08 54,-1250.08"/>
<text text-anchor="middle" x="27" y="-1228.38" font-family="Times,serif" font-size="14.00">10</text>
</g>
<!-- 4&#45;&#45;5 -->
<g id="edge4" class="edge">
<title>4&#45;&#45;5</title>
<path fill="none" stroke="black" d="M27,-1344.29C27,-1319.76 27,-1274.75 27,-1250.18"/>
</g>
<!-- 7 -->
<g id="node7" class="node">
<title>7</title>
<polygon fill="none" stroke="green" points="137.5,-1250.08 80.5,-1250.08 80.5,-1214.08 137.5,-1214.08 137.5,-1250.08"/>
<text text-anchor="middle" x="109" y="-1228.38" font-family="Times,serif" font-size="14.00">[EPS]</text>
</g>
<!-- 6&#45;&#45;7 -->
<g id="edge6" class="edge">
<title>6&#45;&#45;7</title>
<path fill="none" stroke="black" d="M109,-1316.11C109,-1293.32 109,-1267.03 109,-1250.25"/>
</g>
<!-- 9 -->
<g id="node9" class="node">
<title>9</title>
<polygon fill="none" stroke="green" points="230.5,-1380.32 173.5,-1380.32 173.5,-1344.32 230.5,-1344.32 230.5,-1380.32"/>
<text text-anchor="middle" x="202" y="-1358.62" font-family="Times,serif" font-size="14.00">[EPS]</text>
</g>
<!-- 8&#45;&#45;9 -->
<g id="edge8" class="edge">
<title>8&#45;&#45;9</title>
<path fill="none" stroke="black" d="M202,-1448.34C202,-1424.99 202,-1397.85 202,-1380.63"/>
</g>
<!-- 11 -->
<g id="node11" class="node">
<title>11</title>
<polygon fill="none" stroke="green" points="339,-1512.51 285,-1512.51 285,-1476.51 339,-1476.51 339,-1512.51"/>
<text text-anchor="middle" x="312" y="-1490.81" font-family="Times,serif" font-size="14.00">+</text>
</g>
<!-- 10&#45;&#45;11 -->
<g id="edge10" class="edge">
<title>10&#45;&#45;11</title>
<path fill="none" stroke="black" d="M332.07,-1579.8C326.53,-1556.52 320.13,-1529.64 316.07,-1512.62"/>
</g>
<!-- 12 -->
<g id="node12" class="node">
<title>12</title>
<ellipse fill="none" stroke="black" cx="375" cy="-1494.51" rx="18" ry="18"/>
<text text-anchor="middle" x="375" y="-1490.81" font-family="Times,serif" font-size="14.00">t</text>
</g>
<!-- 10&#45;&#45;12 -->
<g id="edge11" class="edge">
<title>10&#45;&#45;12</title>
<path fill="none" stroke="black" d="M354.28,-1579.8C360.04,-1556.38 366.69,-1529.31 370.87,-1512.3"/>
</g>
<!-- 27 -->
<g id="node27" class="node">
<title>27</title>
<ellipse fill="none" stroke="black" cx="606" cy="-1494.51" rx="48.19" ry="48.19"/>
<text text-anchor="middle" x="606" y="-1490.81" font-family="Times,serif" font-size="14.00">e_prime</text>
</g>
<!-- 10&#45;&#45;27 -->
<g id="edge26" class="edge">
<title>10&#45;&#45;27</title>
<path fill="none" stroke="black" d="M385.84,-1604.5C434.75,-1580.29 514.28,-1540.92 563.18,-1516.71"/>
</g>
<!-- 13 -->
<g id="node13" class="node">
<title>13</title>
<ellipse fill="none" stroke="black" cx="267" cy="-1362.32" rx="18" ry="18"/>
<text text-anchor="middle" x="267" y="-1358.62" font-family="Times,serif" font-size="14.00">f</text>
</g>
<!-- 12&#45;&#45;13 -->
<g id="edge12" class="edge">
<title>12&#45;&#45;13</title>
<path fill="none" stroke="black" d="M367.41,-1478.06C362.44,-1468.56 355.5,-1456.35 348,-1446.42 326.88,-1418.44 297.05,-1390.1 280.11,-1374.82"/>
</g>
<!-- 18 -->
<g id="node18" class="node">
<title>18</title>
<ellipse fill="none" stroke="black" cx="402" cy="-1362.32" rx="46.29" ry="46.29"/>
<text text-anchor="middle" x="402" y="-1358.62" font-family="Times,serif" font-size="14.00">t_prime</text>
</g>
<!-- 12&#45;&#45;18 -->
<g id="edge17" class="edge">
<title>12&#45;&#45;18</title>
<path fill="none" stroke="black" d="M378.47,-1476.76C382.08,-1459.38 387.86,-1431.48 392.8,-1407.7"/>
</g>
<!-- 14 -->
<g id="node14" class="node">
<title>14</title>
<ellipse fill="none" stroke="black" cx="179" cy="-1232.08" rx="18" ry="18"/>
<text text-anchor="middle" x="179" y="-1228.38" font-family="Times,serif" font-size="14.00">p</text>
</g>
<!-- 13&#45;&#45;14 -->
<g id="edge13" class="edge">
<title>13&#45;&#45;14</title>
<path fill="none" stroke="black" d="M258.93,-1345.97C253.7,-1336.51 246.49,-1324.3 239,-1314.22 226.05,-1296.8 218.97,-1295.63 206,-1278.22 198.91,-1268.71 192.05,-1257.21 187.03,-1248.2"/>
</g>
<!-- 16 -->
<g id="node16" class="node">
<title>16</title>
<ellipse fill="none" stroke="black" cx="261" cy="-1232.08" rx="46.29" ry="46.29"/>
<text text-anchor="middle" x="261" y="-1228.38" font-family="Times,serif" font-size="14.00">f_prime</text>
</g>
<!-- 13&#45;&#45;16 -->
<g id="edge15" class="edge">
<title>13&#45;&#45;16</title>
<path fill="none" stroke="black" d="M266.2,-1344.29C265.42,-1327.53 264.19,-1301.2 263.12,-1278.37"/>
</g>
<!-- 15 -->
<g id="node15" class="node">
<title>15</title>
<polygon fill="none" stroke="green" points="206,-1121.79 152,-1121.79 152,-1085.79 206,-1085.79 206,-1121.79"/>
<text text-anchor="middle" x="179" y="-1100.09" font-family="Times,serif" font-size="14.00">245</text>
</g>
<!-- 14&#45;&#45;15 -->
<g id="edge14" class="edge">
<title>14&#45;&#45;15</title>
<path fill="none" stroke="black" d="M179,-1214.05C179,-1189.94 179,-1146.13 179,-1121.95"/>
</g>
<!-- 17 -->
<g id="node17" class="node">
<title>17</title>
<polygon fill="none" stroke="green" points="289.5,-1121.79 232.5,-1121.79 232.5,-1085.79 289.5,-1085.79 289.5,-1121.79"/>
<text text-anchor="middle" x="261" y="-1100.09" font-family="Times,serif" font-size="14.00">[EPS]</text>
</g>
<!-- 16&#45;&#45;17 -->
<g id="edge16" class="edge">
<title>16&#45;&#45;17</title>
<path fill="none" stroke="black" d="M261,-1185.84C261,-1163.62 261,-1138.17 261,-1121.81"/>
</g>
<!-- 19 -->
<g id="node19" class="node">
<title>19</title>
<polygon fill="none" stroke="green" points="379,-1250.08 325,-1250.08 325,-1214.08 379,-1214.08 379,-1250.08"/>
<text text-anchor="middle" x="352" y="-1228.38" font-family="Times,serif" font-size="14.00">*</text>
</g>
<!-- 18&#45;&#45;19 -->
<g id="edge18" class="edge">
<title>18&#45;&#45;19</title>
<path fill="none" stroke="black" d="M385.49,-1318.97C376.33,-1295.48 365.45,-1267.57 358.63,-1250.08"/>
</g>
<!-- 20 -->
<g id="node20" class="node">
<title>20</title>
<ellipse fill="none" stroke="black" cx="415" cy="-1232.08" rx="18" ry="18"/>
<text text-anchor="middle" x="415" y="-1228.38" font-family="Times,serif" font-size="14.00">f</text>
</g>
<!-- 18&#45;&#45;20 -->
<g id="edge19" class="edge">
<title>18&#45;&#45;20</title>
<path fill="none" stroke="black" d="M406.58,-1316.11C408.89,-1293.32 411.56,-1267.03 413.26,-1250.25"/>
</g>
<!-- 25 -->
<g id="node25" class="node">
<title>25</title>
<ellipse fill="none" stroke="black" cx="501" cy="-1232.08" rx="46.29" ry="46.29"/>
<text text-anchor="middle" x="501" y="-1228.38" font-family="Times,serif" font-size="14.00">t_prime</text>
</g>
<!-- 18&#45;&#45;25 -->
<g id="edge24" class="edge">
<title>18&#45;&#45;25</title>
<path fill="none" stroke="black" d="M429.84,-1325.26C443.34,-1307.77 459.51,-1286.82 473.03,-1269.32"/>
</g>
<!-- 21 -->
<g id="node21" class="node">
<title>21</title>
<ellipse fill="none" stroke="black" cx="329" cy="-1103.79" rx="18" ry="18"/>
<text text-anchor="middle" x="329" y="-1100.09" font-family="Times,serif" font-size="14.00">p</text>
</g>
<!-- 20&#45;&#45;21 -->
<g id="edge20" class="edge">
<title>20&#45;&#45;21</title>
<path fill="none" stroke="black" d="M406.92,-1215.99C401.87,-1207 395.02,-1195.51 388,-1185.93 375.34,-1168.67 368.66,-1167.2 356,-1149.93 348.98,-1140.36 342.13,-1128.87 337.08,-1119.87"/>
</g>
<!-- 23 -->
<g id="node23" class="node">
<title>23</title>
<ellipse fill="none" stroke="black" cx="411" cy="-1103.79" rx="46.29" ry="46.29"/>
<text text-anchor="middle" x="411" y="-1100.09" font-family="Times,serif" font-size="14.00">f_prime</text>
</g>
<!-- 20&#45;&#45;23 -->
<g id="edge22" class="edge">
<title>20&#45;&#45;23</title>
<path fill="none" stroke="black" d="M414.46,-1214.05C413.94,-1197.69 413.14,-1172.24 412.43,-1150.03"/>
</g>
<!-- 22 -->
<g id="node22" class="node">
<title>22</title>
<polygon fill="none" stroke="green" points="356,-1021.64 302,-1021.64 302,-985.64 356,-985.64 356,-1021.64"/>
<text text-anchor="middle" x="329" y="-999.94" font-family="Times,serif" font-size="14.00">303</text>
</g>
<!-- 21&#45;&#45;22 -->
<g id="edge21" class="edge">
<title>21&#45;&#45;22</title>
<path fill="none" stroke="black" d="M329,-1085.69C329,-1067.79 329,-1039.82 329,-1021.87"/>
</g>
<!-- 24 -->
<g id="node24" class="node">
<title>24</title>
<polygon fill="none" stroke="green" points="439.5,-1021.64 382.5,-1021.64 382.5,-985.64 439.5,-985.64 439.5,-1021.64"/>
<text text-anchor="middle" x="411" y="-999.94" font-family="Times,serif" font-size="14.00">[EPS]</text>
</g>
<!-- 23&#45;&#45;24 -->
<g id="edge23" class="edge">
<title>23&#45;&#45;24</title>
<path fill="none" stroke="black" d="M411,-1057.45C411,-1044.79 411,-1031.8 411,-1021.87"/>
</g>
<!-- 26 -->
<g id="node26" class="node">
<title>26</title>
<polygon fill="none" stroke="green" points="532.5,-1121.79 475.5,-1121.79 475.5,-1085.79 532.5,-1085.79 532.5,-1121.79"/>
<text text-anchor="middle" x="504" y="-1100.09" font-family="Times,serif" font-size="14.00">[EPS]</text>
</g>
<!-- 25&#45;&#45;26 -->
<g id="edge25" class="edge">
<title>25&#45;&#45;26</title>
<path fill="none" stroke="black" d="M502.07,-1185.84C502.6,-1163.62 503.21,-1138.17 503.6,-1121.81"/>
</g>
<!-- 28 -->
<g id="node28" class="node">
<title>28</title>
<polygon fill="none" stroke="green" points="602,-1380.32 548,-1380.32 548,-1344.32 602,-1344.32 602,-1380.32"/>
<text text-anchor="middle" x="575" y="-1358.62" font-family="Times,serif" font-size="14.00">&#45;</text>
</g>
<!-- 27&#45;&#45;28 -->
<g id="edge27" class="edge">
<title>27&#45;&#45;28</title>
<path fill="none" stroke="black" d="M595.07,-1447.61C589.53,-1424.33 583.13,-1397.45 579.07,-1380.43"/>
</g>
<!-- 29 -->
<g id="node29" class="node">
<title>29</title>
<ellipse fill="none" stroke="black" cx="638" cy="-1362.32" rx="18" ry="18"/>
<text text-anchor="middle" x="638" y="-1358.62" font-family="Times,serif" font-size="14.00">t</text>
</g>
<!-- 27&#45;&#45;29 -->
<g id="edge28" class="edge">
<title>27&#45;&#45;29</title>
<path fill="none" stroke="black" d="M617.28,-1447.61C623.04,-1424.18 629.69,-1397.12 633.87,-1380.11"/>
</g>
<!-- 101 -->
<g id="node101" class="node">
<title>101</title>
<ellipse fill="none" stroke="black" cx="767" cy="-1362.32" rx="48.19" ry="48.19"/>
<text text-anchor="middle" x="767" y="-1358.62" font-family="Times,serif" font-size="14.00">e_prime</text>
</g>
<!-- 27&#45;&#45;101 -->
<g id="edge100" class="edge">
<title>27&#45;&#45;101</title>
<path fill="none" stroke="black" d="M642.94,-1463.64C669.02,-1442.55 703.85,-1414.39 729.96,-1393.28"/>
</g>
<!-- 30 -->
<g id="node30" class="node">
<title>30</title>
<ellipse fill="none" stroke="black" cx="615" cy="-1232.08" rx="18" ry="18"/>
<text text-anchor="middle" x="615" y="-1228.38" font-family="Times,serif" font-size="14.00">f</text>
</g>
<!-- 29&#45;&#45;30 -->
<g id="edge29" class="edge">
<title>29&#45;&#45;30</title>
<path fill="none" stroke="black" d="M634.99,-1344.56C630.59,-1319.98 622.42,-1274.43 618.01,-1249.85"/>
</g>
<!-- 99 -->
<g id="node99" class="node">
<title>99</title>
<ellipse fill="none" stroke="black" cx="697" cy="-1232.08" rx="46.29" ry="46.29"/>
<text text-anchor="middle" x="697" y="-1228.38" font-family="Times,serif" font-size="14.00">t_prime</text>
</g>
<!-- 29&#45;&#45;99 -->
<g id="edge98" class="edge">
<title>29&#45;&#45;99</title>
<path fill="none" stroke="black" d="M645.23,-1345.6C653.36,-1327.94 666.87,-1298.58 678.05,-1274.27"/>
</g>
<!-- 31 -->
<g id="node31" class="node">
<title>31</title>
<ellipse fill="none" stroke="black" cx="569" cy="-1103.79" rx="18" ry="18"/>
<text text-anchor="middle" x="569" y="-1100.09" font-family="Times,serif" font-size="14.00">p</text>
</g>
<!-- 30&#45;&#45;31 -->
<g id="edge30" class="edge">
<title>30&#45;&#45;31</title>
<path fill="none" stroke="black" d="M609.08,-1214.83C600.25,-1190.58 583.72,-1145.19 574.9,-1120.98"/>
</g>
<!-- 97 -->
<g id="node97" class="node">
<title>97</title>
<ellipse fill="none" stroke="black" cx="651" cy="-1103.79" rx="46.29" ry="46.29"/>
<text text-anchor="middle" x="651" y="-1100.09" font-family="Times,serif" font-size="14.00">f_prime</text>
</g>
<!-- 30&#45;&#45;97 -->
<g id="edge96" class="edge">
<title>30&#45;&#45;97</title>
<path fill="none" stroke="black" d="M619.71,-1214.57C624.47,-1197.85 632.04,-1171.29 638.55,-1148.48"/>
</g>
<!-- 32 -->
<g id="node32" class="node">
<title>32</title>
<polygon fill="none" stroke="green" points="522,-1021.64 468,-1021.64 468,-985.64 522,-985.64 522,-1021.64"/>
<text text-anchor="middle" x="495" y="-999.94" font-family="Times,serif" font-size="14.00">(</text>
</g>
<!-- 31&#45;&#45;32 -->
<g id="edge31" class="edge">
<title>31&#45;&#45;32</title>
<path fill="none" stroke="black" d="M560.5,-1087.76C555.22,-1078.79 548.11,-1067.29 541,-1057.64 531.75,-1045.09 520.25,-1031.84 511.06,-1021.72"/>
</g>
<!-- 33 -->
<g id="node33" class="node">
<title>33</title>
<ellipse fill="none" stroke="black" cx="558" cy="-1003.64" rx="18" ry="18"/>
<text text-anchor="middle" x="558" y="-999.94" font-family="Times,serif" font-size="14.00">e</text>
</g>
<!-- 31&#45;&#45;33 -->
<g id="edge32" class="edge">
<title>31&#45;&#45;33</title>
<path fill="none" stroke="black" d="M567.08,-1085.69C565.08,-1067.79 561.94,-1039.82 559.93,-1021.87"/>
</g>
<!-- 96 -->
<g id="node96" class="node">
<title>96</title>
<polygon fill="none" stroke="green" points="648,-1021.64 594,-1021.64 594,-985.64 648,-985.64 648,-1021.64"/>
<text text-anchor="middle" x="621" y="-999.94" font-family="Times,serif" font-size="14.00">)</text>
</g>
<!-- 31&#45;&#45;96 -->
<g id="edge95" class="edge">
<title>31&#45;&#45;96</title>
<path fill="none" stroke="black" d="M577.12,-1087.45C586.55,-1069.66 602.05,-1040.4 611.88,-1021.85"/>
</g>
<!-- 34 -->
<g id="node34" class="node">
<title>34</title>
<ellipse fill="none" stroke="black" cx="512" cy="-901.55" rx="18" ry="18"/>
<text text-anchor="middle" x="512" y="-897.85" font-family="Times,serif" font-size="14.00">t</text>
</g>
<!-- 33&#45;&#45;34 -->
<g id="edge33" class="edge">
<title>33&#45;&#45;34</title>
<path fill="none" stroke="black" d="M550.81,-987C542.17,-968.2 527.76,-936.83 519.14,-918.08"/>
</g>
<!-- 42 -->
<g id="node42" class="node">
<title>42</title>
<ellipse fill="none" stroke="black" cx="635" cy="-901.55" rx="48.19" ry="48.19"/>
<text text-anchor="middle" x="635" y="-897.85" font-family="Times,serif" font-size="14.00">e_prime</text>
</g>
<!-- 33&#45;&#45;42 -->
<g id="edge41" class="edge">
<title>33&#45;&#45;42</title>
<path fill="none" stroke="black" d="M568.71,-988.72C578.38,-976.15 593.05,-957.07 606.14,-940.06"/>
</g>
<!-- 35 -->
<g id="node35" class="node">
<title>35</title>
<ellipse fill="none" stroke="black" cx="419" cy="-769.35" rx="18" ry="18"/>
<text text-anchor="middle" x="419" y="-765.65" font-family="Times,serif" font-size="14.00">f</text>
</g>
<!-- 34&#45;&#45;35 -->
<g id="edge34" class="edge">
<title>34&#45;&#45;35</title>
<path fill="none" stroke="black" d="M501.87,-886.36C483.98,-861.32 447,-809.55 429.12,-784.52"/>
</g>
<!-- 40 -->
<g id="node40" class="node">
<title>40</title>
<ellipse fill="none" stroke="black" cx="512" cy="-769.35" rx="46.29" ry="46.29"/>
<text text-anchor="middle" x="512" y="-765.65" font-family="Times,serif" font-size="14.00">t_prime</text>
</g>
<!-- 34&#45;&#45;40 -->
<g id="edge39" class="edge">
<title>34&#45;&#45;40</title>
<path fill="none" stroke="black" d="M512,-883.53C512,-866.36 512,-839.13 512,-815.67"/>
</g>
<!-- 36 -->
<g id="node36" class="node">
<title>36</title>
<ellipse fill="none" stroke="black" cx="337" cy="-637.16" rx="18" ry="18"/>
<text text-anchor="middle" x="337" y="-633.46" font-family="Times,serif" font-size="14.00">p</text>
</g>
<!-- 35&#45;&#45;36 -->
<g id="edge35" class="edge">
<title>35&#45;&#45;36</title>
<path fill="none" stroke="black" d="M409.18,-754.12C397.95,-737.72 379.17,-709.85 364,-685.26 357.47,-674.67 350.5,-662.48 345.27,-653.15"/>
</g>
<!-- 38 -->
<g id="node38" class="node">
<title>38</title>
<ellipse fill="none" stroke="black" cx="419" cy="-637.16" rx="46.29" ry="46.29"/>
<text text-anchor="middle" x="419" y="-633.46" font-family="Times,serif" font-size="14.00">f_prime</text>
</g>
<!-- 35&#45;&#45;38 -->
<g id="edge37" class="edge">
<title>35&#45;&#45;38</title>
<path fill="none" stroke="black" d="M419,-751.33C419,-734.17 419,-706.94 419,-683.48"/>
</g>
<!-- 37 -->
<g id="node37" class="node">
<title>37</title>
<polygon fill="none" stroke="green" points="364,-522.97 310,-522.97 310,-486.97 364,-486.97 364,-522.97"/>
<text text-anchor="middle" x="337" y="-501.27" font-family="Times,serif" font-size="14.00">10</text>
</g>
<!-- 36&#45;&#45;37 -->
<g id="edge36" class="edge">
<title>36&#45;&#45;37</title>
<path fill="none" stroke="black" d="M337,-619.14C337,-594.19 337,-547.95 337,-523"/>
</g>
<!-- 39 -->
<g id="node39" class="node">
<title>39</title>
<polygon fill="none" stroke="green" points="447.5,-522.97 390.5,-522.97 390.5,-486.97 447.5,-486.97 447.5,-522.97"/>
<text text-anchor="middle" x="419" y="-501.27" font-family="Times,serif" font-size="14.00">[EPS]</text>
</g>
<!-- 38&#45;&#45;39 -->
<g id="edge38" class="edge">
<title>38&#45;&#45;39</title>
<path fill="none" stroke="black" d="M419,-590.99C419,-567.64 419,-540.5 419,-523.28"/>
</g>
<!-- 41 -->
<g id="node41" class="node">
<title>41</title>
<polygon fill="none" stroke="green" points="540.5,-655.16 483.5,-655.16 483.5,-619.16 540.5,-619.16 540.5,-655.16"/>
<text text-anchor="middle" x="512" y="-633.46" font-family="Times,serif" font-size="14.00">[EPS]</text>
</g>
<!-- 40&#45;&#45;41 -->
<g id="edge40" class="edge">
<title>40&#45;&#45;41</title>
<path fill="none" stroke="black" d="M512,-723.18C512,-699.83 512,-672.69 512,-655.47"/>
</g>
<!-- 43 -->
<g id="node43" class="node">
<title>43</title>
<polygon fill="none" stroke="green" points="631,-787.35 577,-787.35 577,-751.35 631,-751.35 631,-787.35"/>
<text text-anchor="middle" x="604" y="-765.65" font-family="Times,serif" font-size="14.00">+</text>
</g>
<!-- 42&#45;&#45;43 -->
<g id="edge42" class="edge">
<title>42&#45;&#45;43</title>
<path fill="none" stroke="black" d="M624.07,-854.64C618.53,-831.36 612.13,-804.49 608.07,-787.46"/>
</g>
<!-- 44 -->
<g id="node44" class="node">
<title>44</title>
<ellipse fill="none" stroke="black" cx="667" cy="-769.35" rx="18" ry="18"/>
<text text-anchor="middle" x="667" y="-765.65" font-family="Times,serif" font-size="14.00">t</text>
</g>
<!-- 42&#45;&#45;44 -->
<g id="edge43" class="edge">
<title>42&#45;&#45;44</title>
<path fill="none" stroke="black" d="M646.28,-854.64C652.04,-831.22 658.69,-804.15 662.87,-787.14"/>
</g>
<!-- 52 -->
<g id="node52" class="node">
<title>52</title>
<ellipse fill="none" stroke="black" cx="832" cy="-769.35" rx="48.19" ry="48.19"/>
<text text-anchor="middle" x="832" y="-765.65" font-family="Times,serif" font-size="14.00">e_prime</text>
</g>
<!-- 42&#45;&#45;52 -->
<g id="edge51" class="edge">
<title>42&#45;&#45;52</title>
<path fill="none" stroke="black" d="M674.87,-874.2C709.04,-851.61 758.03,-819.24 792.19,-796.66"/>
</g>
<!-- 45 -->
<g id="node45" class="node">
<title>45</title>
<ellipse fill="none" stroke="black" cx="577" cy="-637.16" rx="18" ry="18"/>
<text text-anchor="middle" x="577" y="-633.46" font-family="Times,serif" font-size="14.00">f</text>
</g>
<!-- 44&#45;&#45;45 -->
<g id="edge44" class="edge">
<title>44&#45;&#45;45</title>
<path fill="none" stroke="black" d="M658.97,-753.21C653.83,-743.83 646.87,-731.63 640,-721.26 630.96,-707.6 603.21,-671.71 587.73,-651.86"/>
</g>
<!-- 50 -->
<g id="node50" class="node">
<title>50</title>
<ellipse fill="none" stroke="black" cx="669" cy="-637.16" rx="46.29" ry="46.29"/>
<text text-anchor="middle" x="669" y="-633.46" font-family="Times,serif" font-size="14.00">t_prime</text>
</g>
<!-- 44&#45;&#45;50 -->
<g id="edge49" class="edge">
<title>44&#45;&#45;50</title>
<path fill="none" stroke="black" d="M667.26,-751.33C667.53,-734.17 667.94,-706.94 668.3,-683.48"/>
</g>
<!-- 46 -->
<g id="node46" class="node">
<title>46</title>
<ellipse fill="none" stroke="black" cx="494" cy="-504.97" rx="18" ry="18"/>
<text text-anchor="middle" x="494" y="-501.27" font-family="Times,serif" font-size="14.00">p</text>
</g>
<!-- 45&#45;&#45;46 -->
<g id="edge45" class="edge">
<title>45&#45;&#45;46</title>
<path fill="none" stroke="black" d="M568.64,-621.02C563.3,-611.64 556.08,-599.44 549,-589.07 537.58,-572.32 532.29,-569.9 521,-553.07 514.07,-542.74 507.11,-530.54 501.99,-521.14"/>
</g>
<!-- 48 -->
<g id="node48" class="node">
<title>48</title>
<ellipse fill="none" stroke="black" cx="576" cy="-504.97" rx="46.29" ry="46.29"/>
<text text-anchor="middle" x="576" y="-501.27" font-family="Times,serif" font-size="14.00">f_prime</text>
</g>
<!-- 45&#45;&#45;48 -->
<g id="edge47" class="edge">
<title>45&#45;&#45;48</title>
<path fill="none" stroke="black" d="M576.87,-619.14C576.74,-601.98 576.53,-574.74 576.35,-551.29"/>
</g>
<!-- 47 -->
<g id="node47" class="node">
<title>47</title>
<polygon fill="none" stroke="green" points="521,-392.73 467,-392.73 467,-356.73 521,-356.73 521,-392.73"/>
<text text-anchor="middle" x="494" y="-371.03" font-family="Times,serif" font-size="14.00">211</text>
</g>
<!-- 46&#45;&#45;47 -->
<g id="edge46" class="edge">
<title>46&#45;&#45;47</title>
<path fill="none" stroke="black" d="M494,-486.94C494,-462.41 494,-417.4 494,-392.83"/>
</g>
<!-- 49 -->
<g id="node49" class="node">
<title>49</title>
<polygon fill="none" stroke="green" points="604.5,-392.73 547.5,-392.73 547.5,-356.73 604.5,-356.73 604.5,-392.73"/>
<text text-anchor="middle" x="576" y="-371.03" font-family="Times,serif" font-size="14.00">[EPS]</text>
</g>
<!-- 48&#45;&#45;49 -->
<g id="edge48" class="edge">
<title>48&#45;&#45;49</title>
<path fill="none" stroke="black" d="M576,-458.76C576,-435.97 576,-409.68 576,-392.9"/>
</g>
<!-- 51 -->
<g id="node51" class="node">
<title>51</title>
<polygon fill="none" stroke="green" points="697.5,-522.97 640.5,-522.97 640.5,-486.97 697.5,-486.97 697.5,-522.97"/>
<text text-anchor="middle" x="669" y="-501.27" font-family="Times,serif" font-size="14.00">[EPS]</text>
</g>
<!-- 50&#45;&#45;51 -->
<g id="edge50" class="edge">
<title>50&#45;&#45;51</title>
<path fill="none" stroke="black" d="M669,-590.99C669,-567.64 669,-540.5 669,-523.28"/>
</g>
<!-- 53 -->
<g id="node53" class="node">
<title>53</title>
<polygon fill="none" stroke="green" points="828,-655.16 774,-655.16 774,-619.16 828,-619.16 828,-655.16"/>
<text text-anchor="middle" x="801" y="-633.46" font-family="Times,serif" font-size="14.00">+</text>
</g>
<!-- 52&#45;&#45;53 -->
<g id="edge52" class="edge">
<title>52&#45;&#45;53</title>
<path fill="none" stroke="black" d="M821.07,-722.45C815.53,-699.17 809.13,-672.3 805.07,-655.27"/>
</g>
<!-- 54 -->
<g id="node54" class="node">
<title>54</title>
<ellipse fill="none" stroke="black" cx="864" cy="-637.16" rx="18" ry="18"/>
<text text-anchor="middle" x="864" y="-633.46" font-family="Times,serif" font-size="14.00">t</text>
</g>
<!-- 52&#45;&#45;54 -->
<g id="edge53" class="edge">
<title>52&#45;&#45;54</title>
<path fill="none" stroke="black" d="M843.28,-722.45C849.04,-699.03 855.69,-671.96 859.87,-654.95"/>
</g>
<!-- 77 -->
<g id="node77" class="node">
<title>77</title>
<ellipse fill="none" stroke="black" cx="1210" cy="-637.16" rx="48.19" ry="48.19"/>
<text text-anchor="middle" x="1210" y="-633.46" font-family="Times,serif" font-size="14.00">e_prime</text>
</g>
<!-- 52&#45;&#45;77 -->
<g id="edge76" class="edge">
<title>52&#45;&#45;77</title>
<path fill="none" stroke="black" d="M877.22,-752.78C949.92,-727.74 1091.99,-678.81 1164.73,-653.76"/>
</g>
<!-- 55 -->
<g id="node55" class="node">
<title>55</title>
<ellipse fill="none" stroke="black" cx="734" cy="-504.97" rx="18" ry="18"/>
<text text-anchor="middle" x="734" y="-501.27" font-family="Times,serif" font-size="14.00">f</text>
</g>
<!-- 54&#45;&#45;55 -->
<g id="edge54" class="edge">
<title>54&#45;&#45;55</title>
<path fill="none" stroke="black" d="M856.82,-620.38C852,-610.76 845.07,-598.53 837,-589.07 810.31,-557.78 770.59,-529.62 749.11,-515.51"/>
</g>
<!-- 68 -->
<g id="node68" class="node">
<title>68</title>
<ellipse fill="none" stroke="black" cx="905" cy="-504.97" rx="46.29" ry="46.29"/>
<text text-anchor="middle" x="905" y="-501.27" font-family="Times,serif" font-size="14.00">t_prime</text>
</g>
<!-- 54&#45;&#45;68 -->
<g id="edge67" class="edge">
<title>54&#45;&#45;68</title>
<path fill="none" stroke="black" d="M869.19,-619.67C874.75,-602.02 883.8,-573.29 891.41,-549.12"/>
</g>
<!-- 56 -->
<g id="node56" class="node">
<title>56</title>
<ellipse fill="none" stroke="black" cx="646" cy="-374.73" rx="18" ry="18"/>
<text text-anchor="middle" x="646" y="-371.03" font-family="Times,serif" font-size="14.00">p</text>
</g>
<!-- 55&#45;&#45;56 -->
<g id="edge55" class="edge">
<title>55&#45;&#45;56</title>
<path fill="none" stroke="black" d="M725.76,-488.74C720.47,-479.33 713.25,-467.13 706,-456.88 693.97,-439.87 688.45,-437.57 676,-420.88 668.69,-411.07 661.07,-399.58 655.33,-390.65"/>
</g>
<!-- 58 -->
<g id="node58" class="node">
<title>58</title>
<ellipse fill="none" stroke="black" cx="731" cy="-374.73" rx="46.29" ry="46.29"/>
<text text-anchor="middle" x="731" y="-371.03" font-family="Times,serif" font-size="14.00">f_prime</text>
</g>
<!-- 55&#45;&#45;58 -->
<g id="edge57" class="edge">
<title>55&#45;&#45;58</title>
<path fill="none" stroke="black" d="M733.6,-486.94C733.21,-470.18 732.59,-443.85 732.06,-421.02"/>
</g>
<!-- 57 -->
<g id="node57" class="node">
<title>57</title>
<polygon fill="none" stroke="green" points="582,-264.44 528,-264.44 528,-228.44 582,-228.44 582,-264.44"/>
<text text-anchor="middle" x="555" y="-242.74" font-family="Times,serif" font-size="14.00">8</text>
</g>
<!-- 56&#45;&#45;57 -->
<g id="edge56" class="edge">
<title>56&#45;&#45;57</title>
<path fill="none" stroke="black" d="M635.91,-359.73C619.16,-336.48 585.65,-289.97 567.45,-264.72"/>
</g>
<!-- 59 -->
<g id="node59" class="node">
<title>59</title>
<polygon fill="none" stroke="green" points="654,-264.44 600,-264.44 600,-228.44 654,-228.44 654,-264.44"/>
<text text-anchor="middle" x="627" y="-242.74" font-family="Times,serif" font-size="14.00">**</text>
</g>
<!-- 58&#45;&#45;59 -->
<g id="edge58" class="edge">
<title>58&#45;&#45;59</title>
<path fill="none" stroke="black" d="M701.36,-338.74C689.37,-324.48 675.45,-307.81 663,-292.58 655.51,-283.43 647.28,-273.12 640.58,-264.67"/>
</g>
<!-- 60 -->
<g id="node60" class="node">
<title>60</title>
<ellipse fill="none" stroke="black" cx="690" cy="-246.44" rx="18" ry="18"/>
<text text-anchor="middle" x="690" y="-242.74" font-family="Times,serif" font-size="14.00">p</text>
</g>
<!-- 58&#45;&#45;60 -->
<g id="edge59" class="edge">
<title>58&#45;&#45;60</title>
<path fill="none" stroke="black" d="M717,-330.62C709.54,-307.61 700.78,-280.64 695.31,-263.8"/>
</g>
<!-- 62 -->
<g id="node62" class="node">
<title>62</title>
<ellipse fill="none" stroke="black" cx="772" cy="-246.44" rx="46.29" ry="46.29"/>
<text text-anchor="middle" x="772" y="-242.74" font-family="Times,serif" font-size="14.00">f_prime</text>
</g>
<!-- 58&#45;&#45;62 -->
<g id="edge61" class="edge">
<title>58&#45;&#45;62</title>
<path fill="none" stroke="black" d="M745,-330.62C749.17,-317.76 753.75,-303.66 757.93,-290.78"/>
</g>
<!-- 61 -->
<g id="node61" class="node">
<title>61</title>
<polygon fill="none" stroke="green" points="643,-136.15 589,-136.15 589,-100.15 643,-100.15 643,-136.15"/>
<text text-anchor="middle" x="616" y="-114.45" font-family="Times,serif" font-size="14.00">2</text>
</g>
<!-- 60&#45;&#45;61 -->
<g id="edge60" class="edge">
<title>60&#45;&#45;61</title>
<path fill="none" stroke="black" d="M681.22,-230.45C667.44,-206.93 640.79,-161.46 626.19,-136.53"/>
</g>
<!-- 63 -->
<g id="node63" class="node">
<title>63</title>
<polygon fill="none" stroke="green" points="715,-136.15 661,-136.15 661,-100.15 715,-100.15 715,-136.15"/>
<text text-anchor="middle" x="688" y="-114.45" font-family="Times,serif" font-size="14.00">**</text>
</g>
<!-- 62&#45;&#45;63 -->
<g id="edge62" class="edge">
<title>62&#45;&#45;63</title>
<path fill="none" stroke="black" d="M746.8,-207.55C731.04,-183.86 711.51,-154.5 699.4,-136.29"/>
</g>
<!-- 64 -->
<g id="node64" class="node">
<title>64</title>
<ellipse fill="none" stroke="black" cx="751" cy="-118.15" rx="18" ry="18"/>
<text text-anchor="middle" x="751" y="-114.45" font-family="Times,serif" font-size="14.00">p</text>
</g>
<!-- 62&#45;&#45;64 -->
<g id="edge63" class="edge">
<title>62&#45;&#45;64</title>
<path fill="none" stroke="black" d="M764.54,-200.56C760.81,-178.15 756.53,-152.39 753.79,-135.95"/>
</g>
<!-- 66 -->
<g id="node66" class="node">
<title>66</title>
<ellipse fill="none" stroke="black" cx="833" cy="-118.15" rx="46.29" ry="46.29"/>
<text text-anchor="middle" x="833" y="-114.45" font-family="Times,serif" font-size="14.00">f_prime</text>
</g>
<!-- 62&#45;&#45;66 -->
<g id="edge65" class="edge">
<title>62&#45;&#45;66</title>
<path fill="none" stroke="black" d="M791.8,-204.43C798.69,-190.17 806.41,-174.19 813.29,-159.94"/>
</g>
<!-- 65 -->
<g id="node65" class="node">
<title>65</title>
<polygon fill="none" stroke="green" points="778,-36 724,-36 724,0 778,0 778,-36"/>
<text text-anchor="middle" x="751" y="-14.3" font-family="Times,serif" font-size="14.00">3</text>
</g>
<!-- 64&#45;&#45;65 -->
<g id="edge64" class="edge">
<title>64&#45;&#45;65</title>
<path fill="none" stroke="black" d="M751,-100.05C751,-82.15 751,-54.18 751,-36.23"/>
</g>
<!-- 67 -->
<g id="node67" class="node">
<title>67</title>
<polygon fill="none" stroke="green" points="861.5,-36 804.5,-36 804.5,0 861.5,0 861.5,-36"/>
<text text-anchor="middle" x="833" y="-14.3" font-family="Times,serif" font-size="14.00">[EPS]</text>
</g>
<!-- 66&#45;&#45;67 -->
<g id="edge66" class="edge">
<title>66&#45;&#45;67</title>
<path fill="none" stroke="black" d="M833,-71.81C833,-59.15 833,-46.16 833,-36.23"/>
</g>
<!-- 69 -->
<g id="node69" class="node">
<title>69</title>
<polygon fill="none" stroke="green" points="900,-392.73 846,-392.73 846,-356.73 900,-356.73 900,-392.73"/>
<text text-anchor="middle" x="873" y="-371.03" font-family="Times,serif" font-size="14.00">*</text>
</g>
<!-- 68&#45;&#45;69 -->
<g id="edge68" class="edge">
<title>68&#45;&#45;69</title>
<path fill="none" stroke="black" d="M893.99,-459.84C888.24,-436.8 881.53,-409.93 877.28,-392.88"/>
</g>
<!-- 70 -->
<g id="node70" class="node">
<title>70</title>
<ellipse fill="none" stroke="black" cx="936" cy="-374.73" rx="18" ry="18"/>
<text text-anchor="middle" x="936" y="-371.03" font-family="Times,serif" font-size="14.00">f</text>
</g>
<!-- 68&#45;&#45;70 -->
<g id="edge69" class="edge">
<title>68&#45;&#45;70</title>
<path fill="none" stroke="black" d="M915.67,-459.84C921.27,-436.65 927.81,-409.59 931.93,-392.56"/>
</g>
<!-- 75 -->
<g id="node75" class="node">
<title>75</title>
<ellipse fill="none" stroke="black" cx="1065" cy="-374.73" rx="46.29" ry="46.29"/>
<text text-anchor="middle" x="1065" y="-371.03" font-family="Times,serif" font-size="14.00">t_prime</text>
</g>
<!-- 68&#45;&#45;75 -->
<g id="edge74" class="edge">
<title>68&#45;&#45;75</title>
<path fill="none" stroke="black" d="M940.91,-475.19C967.26,-454.07 1002.89,-425.51 1029.21,-404.41"/>
</g>
<!-- 71 -->
<g id="node71" class="node">
<title>71</title>
<ellipse fill="none" stroke="black" cx="895" cy="-246.44" rx="18" ry="18"/>
<text text-anchor="middle" x="895" y="-242.74" font-family="Times,serif" font-size="14.00">p</text>
</g>
<!-- 70&#45;&#45;71 -->
<g id="edge70" class="edge">
<title>70&#45;&#45;71</title>
<path fill="none" stroke="black" d="M930.72,-357.48C922.89,-333.36 908.28,-288.34 900.39,-264.03"/>
</g>
<!-- 73 -->
<g id="node73" class="node">
<title>73</title>
<ellipse fill="none" stroke="black" cx="977" cy="-246.44" rx="46.29" ry="46.29"/>
<text text-anchor="middle" x="977" y="-242.74" font-family="Times,serif" font-size="14.00">f_prime</text>
</g>
<!-- 70&#45;&#45;73 -->
<g id="edge72" class="edge">
<title>70&#45;&#45;73</title>
<path fill="none" stroke="black" d="M941.28,-357.48C946.75,-340.62 955.53,-313.56 963.02,-290.49"/>
</g>
<!-- 72 -->
<g id="node72" class="node">
<title>72</title>
<polygon fill="none" stroke="green" points="951,-136.15 897,-136.15 897,-100.15 951,-100.15 951,-136.15"/>
<text text-anchor="middle" x="924" y="-114.45" font-family="Times,serif" font-size="14.00">5</text>
</g>
<!-- 71&#45;&#45;72 -->
<g id="edge71" class="edge">
<title>71&#45;&#45;72</title>
<path fill="none" stroke="black" d="M898.85,-228.67C904.37,-204.65 914.46,-160.67 920.04,-136.39"/>
</g>
<!-- 74 -->
<g id="node74" class="node">
<title>74</title>
<polygon fill="none" stroke="green" points="1026.5,-136.15 969.5,-136.15 969.5,-100.15 1026.5,-100.15 1026.5,-136.15"/>
<text text-anchor="middle" x="998" y="-114.45" font-family="Times,serif" font-size="14.00">[EPS]</text>
</g>
<!-- 73&#45;&#45;74 -->
<g id="edge73" class="edge">
<title>73&#45;&#45;74</title>
<path fill="none" stroke="black" d="M984.46,-200.56C988.16,-178.29 992.42,-152.72 995.15,-136.27"/>
</g>
<!-- 76 -->
<g id="node76" class="node">
<title>76</title>
<polygon fill="none" stroke="green" points="1098.5,-264.44 1041.5,-264.44 1041.5,-228.44 1098.5,-228.44 1098.5,-264.44"/>
<text text-anchor="middle" x="1070" y="-242.74" font-family="Times,serif" font-size="14.00">[EPS]</text>
</g>
<!-- 75&#45;&#45;76 -->
<g id="edge75" class="edge">
<title>75&#45;&#45;76</title>
<path fill="none" stroke="black" d="M1066.79,-328.49C1067.67,-306.27 1068.68,-280.82 1069.33,-264.46"/>
</g>
<!-- 78 -->
<g id="node78" class="node">
<title>78</title>
<polygon fill="none" stroke="green" points="1206,-522.97 1152,-522.97 1152,-486.97 1206,-486.97 1206,-522.97"/>
<text text-anchor="middle" x="1179" y="-501.27" font-family="Times,serif" font-size="14.00">+</text>
</g>
<!-- 77&#45;&#45;78 -->
<g id="edge77" class="edge">
<title>77&#45;&#45;78</title>
<path fill="none" stroke="black" d="M1199.07,-590.26C1193.53,-566.98 1187.13,-540.1 1183.07,-523.08"/>
</g>
<!-- 79 -->
<g id="node79" class="node">
<title>79</title>
<ellipse fill="none" stroke="black" cx="1242" cy="-504.97" rx="18" ry="18"/>
<text text-anchor="middle" x="1242" y="-501.27" font-family="Times,serif" font-size="14.00">t</text>
</g>
<!-- 77&#45;&#45;79 -->
<g id="edge78" class="edge">
<title>77&#45;&#45;79</title>
<path fill="none" stroke="black" d="M1221.28,-590.26C1227.04,-566.84 1233.69,-539.77 1237.87,-522.76"/>
</g>
<!-- 94 -->
<g id="node94" class="node">
<title>94</title>
<ellipse fill="none" stroke="black" cx="1376" cy="-504.97" rx="48.19" ry="48.19"/>
<text text-anchor="middle" x="1376" y="-501.27" font-family="Times,serif" font-size="14.00">e_prime</text>
</g>
<!-- 77&#45;&#45;94 -->
<g id="edge93" class="edge">
<title>77&#45;&#45;94</title>
<path fill="none" stroke="black" d="M1247.67,-606.62C1274.83,-585.31 1311.35,-556.68 1338.48,-535.4"/>
</g>
<!-- 80 -->
<g id="node80" class="node">
<title>80</title>
<ellipse fill="none" stroke="black" cx="1217" cy="-374.73" rx="18" ry="18"/>
<text text-anchor="middle" x="1217" y="-371.03" font-family="Times,serif" font-size="14.00">f</text>
</g>
<!-- 79&#45;&#45;80 -->
<g id="edge79" class="edge">
<title>79&#45;&#45;80</title>
<path fill="none" stroke="black" d="M1238.73,-487.21C1233.94,-462.63 1225.06,-417.08 1220.27,-392.5"/>
</g>
<!-- 85 -->
<g id="node85" class="node">
<title>85</title>
<ellipse fill="none" stroke="black" cx="1308" cy="-374.73" rx="46.29" ry="46.29"/>
<text text-anchor="middle" x="1308" y="-371.03" font-family="Times,serif" font-size="14.00">t_prime</text>
</g>
<!-- 79&#45;&#45;85 -->
<g id="edge84" class="edge">
<title>79&#45;&#45;85</title>
<path fill="none" stroke="black" d="M1249.83,-488.76C1258.98,-470.98 1274.49,-440.84 1287.19,-416.16"/>
</g>
<!-- 81 -->
<g id="node81" class="node">
<title>81</title>
<ellipse fill="none" stroke="black" cx="1135" cy="-246.44" rx="18" ry="18"/>
<text text-anchor="middle" x="1135" y="-242.74" font-family="Times,serif" font-size="14.00">p</text>
</g>
<!-- 80&#45;&#45;81 -->
<g id="edge80" class="edge">
<title>80&#45;&#45;81</title>
<path fill="none" stroke="black" d="M1207.02,-359.53C1195.8,-343.46 1177.18,-316.41 1162,-292.58 1155.72,-282.73 1148.97,-271.44 1143.79,-262.62"/>
</g>
<!-- 83 -->
<g id="node83" class="node">
<title>83</title>
<ellipse fill="none" stroke="black" cx="1217" cy="-246.44" rx="46.29" ry="46.29"/>
<text text-anchor="middle" x="1217" y="-242.74" font-family="Times,serif" font-size="14.00">f_prime</text>
</g>
<!-- 80&#45;&#45;83 -->
<g id="edge82" class="edge">
<title>80&#45;&#45;83</title>
<path fill="none" stroke="black" d="M1217,-356.7C1217,-340.34 1217,-314.89 1217,-292.68"/>
</g>
<!-- 82 -->
<g id="node82" class="node">
<title>82</title>
<polygon fill="none" stroke="green" points="1162,-136.15 1108,-136.15 1108,-100.15 1162,-100.15 1162,-136.15"/>
<text text-anchor="middle" x="1135" y="-114.45" font-family="Times,serif" font-size="14.00">30</text>
</g>
<!-- 81&#45;&#45;82 -->
<g id="edge81" class="edge">
<title>81&#45;&#45;82</title>
<path fill="none" stroke="black" d="M1135,-228.41C1135,-204.3 1135,-160.49 1135,-136.31"/>
</g>
<!-- 84 -->
<g id="node84" class="node">
<title>84</title>
<polygon fill="none" stroke="green" points="1245.5,-136.15 1188.5,-136.15 1188.5,-100.15 1245.5,-100.15 1245.5,-136.15"/>
<text text-anchor="middle" x="1217" y="-114.45" font-family="Times,serif" font-size="14.00">[EPS]</text>
</g>
<!-- 83&#45;&#45;84 -->
<g id="edge83" class="edge">
<title>83&#45;&#45;84</title>
<path fill="none" stroke="black" d="M1217,-200.2C1217,-177.98 1217,-152.53 1217,-136.16"/>
</g>
<!-- 86 -->
<g id="node86" class="node">
<title>86</title>
<polygon fill="none" stroke="green" points="1335,-264.44 1281,-264.44 1281,-228.44 1335,-228.44 1335,-264.44"/>
<text text-anchor="middle" x="1308" y="-242.74" font-family="Times,serif" font-size="14.00">/</text>
</g>
<!-- 85&#45;&#45;86 -->
<g id="edge85" class="edge">
<title>85&#45;&#45;86</title>
<path fill="none" stroke="black" d="M1308,-328.49C1308,-306.27 1308,-280.82 1308,-264.46"/>
</g>
<!-- 87 -->
<g id="node87" class="node">
<title>87</title>
<ellipse fill="none" stroke="black" cx="1371" cy="-246.44" rx="18" ry="18"/>
<text text-anchor="middle" x="1371" y="-242.74" font-family="Times,serif" font-size="14.00">f</text>
</g>
<!-- 85&#45;&#45;87 -->
<g id="edge86" class="edge">
<title>85&#45;&#45;87</title>
<path fill="none" stroke="black" d="M1328.28,-333.07C1340.22,-309.14 1354.64,-280.23 1363.3,-262.87"/>
</g>
<!-- 92 -->
<g id="node92" class="node">
<title>92</title>
<ellipse fill="none" stroke="black" cx="1458" cy="-246.44" rx="46.29" ry="46.29"/>
<text text-anchor="middle" x="1458" y="-242.74" font-family="Times,serif" font-size="14.00">t_prime</text>
</g>
<!-- 85&#45;&#45;92 -->
<g id="edge91" class="edge">
<title>85&#45;&#45;92</title>
<path fill="none" stroke="black" d="M1343.17,-344.12C1367.24,-323.85 1399.03,-297.09 1423.05,-276.86"/>
</g>
<!-- 88 -->
<g id="node88" class="node">
<title>88</title>
<ellipse fill="none" stroke="black" cx="1289" cy="-118.15" rx="18" ry="18"/>
<text text-anchor="middle" x="1289" y="-114.45" font-family="Times,serif" font-size="14.00">p</text>
</g>
<!-- 87&#45;&#45;88 -->
<g id="edge87" class="edge">
<title>87&#45;&#45;88</title>
<path fill="none" stroke="black" d="M1362.45,-230.1C1357.35,-221.23 1350.6,-209.94 1344,-200.29 1332.55,-183.56 1327.45,-181.02 1316,-164.29 1309.4,-154.64 1302.65,-143.36 1297.55,-134.48"/>
</g>
<!-- 90 -->
<g id="node90" class="node">
<title>90</title>
<ellipse fill="none" stroke="black" cx="1371" cy="-118.15" rx="46.29" ry="46.29"/>
<text text-anchor="middle" x="1371" y="-114.45" font-family="Times,serif" font-size="14.00">f_prime</text>
</g>
<!-- 87&#45;&#45;90 -->
<g id="edge89" class="edge">
<title>87&#45;&#45;90</title>
<path fill="none" stroke="black" d="M1371,-228.41C1371,-212.04 1371,-186.6 1371,-164.38"/>
</g>
<!-- 89 -->
<g id="node89" class="node">
<title>89</title>
<polygon fill="none" stroke="green" points="1316,-36 1262,-36 1262,0 1316,0 1316,-36"/>
<text text-anchor="middle" x="1289" y="-14.3" font-family="Times,serif" font-size="14.00">3</text>
</g>
<!-- 88&#45;&#45;89 -->
<g id="edge88" class="edge">
<title>88&#45;&#45;89</title>
<path fill="none" stroke="black" d="M1289,-100.05C1289,-82.15 1289,-54.18 1289,-36.23"/>
</g>
<!-- 91 -->
<g id="node91" class="node">
<title>91</title>
<polygon fill="none" stroke="green" points="1399.5,-36 1342.5,-36 1342.5,0 1399.5,0 1399.5,-36"/>
<text text-anchor="middle" x="1371" y="-14.3" font-family="Times,serif" font-size="14.00">[EPS]</text>
</g>
<!-- 90&#45;&#45;91 -->
<g id="edge90" class="edge">
<title>90&#45;&#45;91</title>
<path fill="none" stroke="black" d="M1371,-71.81C1371,-59.15 1371,-46.16 1371,-36.23"/>
</g>
<!-- 93 -->
<g id="node93" class="node">
<title>93</title>
<polygon fill="none" stroke="green" points="1492.5,-136.15 1435.5,-136.15 1435.5,-100.15 1492.5,-100.15 1492.5,-136.15"/>
<text text-anchor="middle" x="1464" y="-114.45" font-family="Times,serif" font-size="14.00">[EPS]</text>
</g>
<!-- 92&#45;&#45;93 -->
<g id="edge92" class="edge">
<title>92&#45;&#45;93</title>
<path fill="none" stroke="black" d="M1460.15,-200.2C1461.21,-177.98 1462.41,-152.53 1463.19,-136.16"/>
</g>
<!-- 95 -->
<g id="node95" class="node">
<title>95</title>
<polygon fill="none" stroke="green" points="1429.5,-392.73 1372.5,-392.73 1372.5,-356.73 1429.5,-356.73 1429.5,-392.73"/>
<text text-anchor="middle" x="1401" y="-371.03" font-family="Times,serif" font-size="14.00">[EPS]</text>
</g>
<!-- 94&#45;&#45;95 -->
<g id="edge94" class="edge">
<title>94&#45;&#45;95</title>
<path fill="none" stroke="black" d="M1385.03,-457.67C1389.42,-435.15 1394.43,-409.43 1397.65,-392.91"/>
</g>
<!-- 98 -->
<g id="node98" class="node">
<title>98</title>
<polygon fill="none" stroke="green" points="723.5,-1021.64 666.5,-1021.64 666.5,-985.64 723.5,-985.64 723.5,-1021.64"/>
<text text-anchor="middle" x="695" y="-999.94" font-family="Times,serif" font-size="14.00">[EPS]</text>
</g>
<!-- 97&#45;&#45;98 -->
<g id="edge97" class="edge">
<title>97&#45;&#45;98</title>
<path fill="none" stroke="black" d="M669.53,-1061.45C675.73,-1047.62 682.31,-1032.95 687.23,-1021.98"/>
</g>
<!-- 100 -->
<g id="node100" class="node">
<title>100</title>
<polygon fill="none" stroke="green" points="772.5,-1121.79 715.5,-1121.79 715.5,-1085.79 772.5,-1085.79 772.5,-1121.79"/>
<text text-anchor="middle" x="744" y="-1100.09" font-family="Times,serif" font-size="14.00">[EPS]</text>
</g>
<!-- 99&#45;&#45;100 -->
<g id="edge99" class="edge">
<title>99&#45;&#45;100</title>
<path fill="none" stroke="black" d="M712.78,-1188.67C721.26,-1165.89 731.25,-1139.05 737.6,-1121.98"/>
</g>
<!-- 102 -->
<g id="node102" class="node">
<title>102</title>
<polygon fill="none" stroke="green" points="818.5,-1250.08 761.5,-1250.08 761.5,-1214.08 818.5,-1214.08 818.5,-1250.08"/>
<text text-anchor="middle" x="790" y="-1228.38" font-family="Times,serif" font-size="14.00">[EPS]</text>
</g>
<!-- 101&#45;&#45;102 -->
<g id="edge101" class="edge">
<title>101&#45;&#45;102</title>
<path fill="none" stroke="black" d="M775.37,-1314.66C779.4,-1292.17 783.99,-1266.58 786.94,-1250.16"/>
</g>
</g>
</svg>
