<?xml version="1.0" encoding="UTF-8" standalone="no"?>
<!DOCTYPE svg PUBLIC "-//W3C//DTD SVG 1.1//EN"
 "http://www.w3.org/Graphics/SVG/1.1/DTD/svg11.dtd">
<!-- Generated by graphviz version 2.43.0 (0)
 -->
<!-- Title: TranslatorGenerator Pages: 1 -->
<svg width="902pt" height="1366pt"
 viewBox="0.00 0.00 902.15 1366.02" xmlns="http://www.w3.org/2000/svg" xmlns:xlink="http://www.w3.org/1999/xlink">
<g id="graph0" class="graph" transform="scale(1 1) rotate(0) translate(4 1362.02)">
<title>TranslatorGenerator</title>
<polygon fill="white" stroke="transparent" points="-4,4 -4,-1362.02 898.15,-1362.02 898.15,4 -4,4"/>
<!-- 1 -->
<g id="node1" class="node">
<title>1</title>
<ellipse fill="none" stroke="black" cx="154" cy="-1340.02" rx="18" ry="18"/>
<text text-anchor="middle" x="154" y="-1336.32" font-family="Times,serif" font-size="14.00">e</text>
</g>
<!-- 2 -->
<g id="node2" class="node">
<title>2</title>
<ellipse fill="none" stroke="black" cx="109" cy="-1237.93" rx="18" ry="18"/>
<text text-anchor="middle" x="109" y="-1234.23" font-family="Times,serif" font-size="14.00">t</text>
</g>
<!-- 1&#45;&#45;2 -->
<g id="edge1" class="edge">
<title>1&#45;&#45;2</title>
<path fill="none" stroke="black" d="M146.97,-1323.38C138.56,-1304.69 124.58,-1273.58 116.13,-1254.79"/>
</g>
<!-- 7 -->
<g id="node7" class="node">
<title>7</title>
<ellipse fill="none" stroke="black" cx="231" cy="-1237.93" rx="48.19" ry="48.19"/>
<text text-anchor="middle" x="231" y="-1234.23" font-family="Times,serif" font-size="14.00">e_prime</text>
</g>
<!-- 1&#45;&#45;7 -->
<g id="edge6" class="edge">
<title>1&#45;&#45;7</title>
<path fill="none" stroke="black" d="M164.71,-1325.11C174.38,-1312.54 189.05,-1293.46 202.14,-1276.44"/>
</g>
<!-- 3 -->
<g id="node3" class="node">
<title>3</title>
<ellipse fill="none" stroke="black" cx="27" cy="-1105.74" rx="18" ry="18"/>
<text text-anchor="middle" x="27" y="-1102.04" font-family="Times,serif" font-size="14.00">f</text>
</g>
<!-- 2&#45;&#45;3 -->
<g id="edge2" class="edge">
<title>2&#45;&#45;3</title>
<path fill="none" stroke="black" d="M99.18,-1222.7C87.95,-1206.29 69.17,-1178.42 54,-1153.83 47.47,-1143.24 40.5,-1131.05 35.27,-1121.73"/>
</g>
<!-- 5 -->
<g id="node5" class="node">
<title>5</title>
<ellipse fill="none" stroke="black" cx="109" cy="-1105.74" rx="46.29" ry="46.29"/>
<text text-anchor="middle" x="109" y="-1102.04" font-family="Times,serif" font-size="14.00">t_prime</text>
</g>
<!-- 2&#45;&#45;5 -->
<g id="edge4" class="edge">
<title>2&#45;&#45;5</title>
<path fill="none" stroke="black" d="M109,-1219.91C109,-1202.75 109,-1175.51 109,-1152.06"/>
</g>
<!-- 4 -->
<g id="node4" class="node">
<title>4</title>
<polygon fill="none" stroke="green" points="54,-991.55 0,-991.55 0,-955.55 54,-955.55 54,-991.55"/>
<text text-anchor="middle" x="27" y="-969.85" font-family="Times,serif" font-size="14.00">10</text>
</g>
<!-- 3&#45;&#45;4 -->
<g id="edge3" class="edge">
<title>3&#45;&#45;4</title>
<path fill="none" stroke="black" d="M27,-1087.72C27,-1062.77 27,-1016.52 27,-991.57"/>
</g>
<!-- 6 -->
<g id="node6" class="node">
<title>6</title>
<polygon fill="none" stroke="green" points="137.5,-991.55 80.5,-991.55 80.5,-955.55 137.5,-955.55 137.5,-991.55"/>
<text text-anchor="middle" x="109" y="-969.85" font-family="Times,serif" font-size="14.00">[EPS]</text>
</g>
<!-- 5&#45;&#45;6 -->
<g id="edge5" class="edge">
<title>5&#45;&#45;6</title>
<path fill="none" stroke="black" d="M109,-1059.57C109,-1036.21 109,-1009.07 109,-991.86"/>
</g>
<!-- 8 -->
<g id="node8" class="node">
<title>8</title>
<polygon fill="none" stroke="green" points="227,-1123.74 173,-1123.74 173,-1087.74 227,-1087.74 227,-1123.74"/>
<text text-anchor="middle" x="200" y="-1102.04" font-family="Times,serif" font-size="14.00">+</text>
</g>
<!-- 7&#45;&#45;8 -->
<g id="edge7" class="edge">
<title>7&#45;&#45;8</title>
<path fill="none" stroke="black" d="M220.07,-1191.03C214.53,-1167.75 208.13,-1140.87 204.07,-1123.84"/>
</g>
<!-- 9 -->
<g id="node9" class="node">
<title>9</title>
<ellipse fill="none" stroke="black" cx="263" cy="-1105.74" rx="18" ry="18"/>
<text text-anchor="middle" x="263" y="-1102.04" font-family="Times,serif" font-size="14.00">t</text>
</g>
<!-- 7&#45;&#45;9 -->
<g id="edge8" class="edge">
<title>7&#45;&#45;9</title>
<path fill="none" stroke="black" d="M242.28,-1191.03C248.04,-1167.6 254.69,-1140.53 258.87,-1123.52"/>
</g>
<!-- 18 -->
<g id="node18" class="node">
<title>18</title>
<ellipse fill="none" stroke="black" cx="487" cy="-1105.74" rx="48.19" ry="48.19"/>
<text text-anchor="middle" x="487" y="-1102.04" font-family="Times,serif" font-size="14.00">e_prime</text>
</g>
<!-- 7&#45;&#45;18 -->
<g id="edge17" class="edge">
<title>7&#45;&#45;18</title>
<path fill="none" stroke="black" d="M273.56,-1215.28C320.91,-1191.21 396.95,-1152.53 444.34,-1128.43"/>
</g>
<!-- 10 -->
<g id="node10" class="node">
<title>10</title>
<ellipse fill="none" stroke="black" cx="178" cy="-973.55" rx="18" ry="18"/>
<text text-anchor="middle" x="178" y="-969.85" font-family="Times,serif" font-size="14.00">f</text>
</g>
<!-- 9&#45;&#45;10 -->
<g id="edge9" class="edge">
<title>9&#45;&#45;10</title>
<path fill="none" stroke="black" d="M255.01,-1089.56C249.89,-1080.17 242.93,-1067.97 236,-1057.64 224.71,-1040.81 219.68,-1038.21 208,-1021.64 200.63,-1011.18 192.88,-998.99 187.11,-989.63"/>
</g>
<!-- 12 -->
<g id="node12" class="node">
<title>12</title>
<ellipse fill="none" stroke="black" cx="263" cy="-973.55" rx="46.29" ry="46.29"/>
<text text-anchor="middle" x="263" y="-969.85" font-family="Times,serif" font-size="14.00">t_prime</text>
</g>
<!-- 9&#45;&#45;12 -->
<g id="edge11" class="edge">
<title>9&#45;&#45;12</title>
<path fill="none" stroke="black" d="M263,-1087.72C263,-1070.55 263,-1043.32 263,-1019.87"/>
</g>
<!-- 11 -->
<g id="node11" class="node">
<title>11</title>
<polygon fill="none" stroke="green" points="155,-861.3 101,-861.3 101,-825.3 155,-825.3 155,-861.3"/>
<text text-anchor="middle" x="128" y="-839.6" font-family="Times,serif" font-size="14.00">245</text>
</g>
<!-- 10&#45;&#45;11 -->
<g id="edge10" class="edge">
<title>10&#45;&#45;11</title>
<path fill="none" stroke="black" d="M171.77,-956.56C162.29,-932.26 144.34,-886.2 134.63,-861.31"/>
</g>
<!-- 13 -->
<g id="node13" class="node">
<title>13</title>
<polygon fill="none" stroke="green" points="227,-861.3 173,-861.3 173,-825.3 227,-825.3 227,-861.3"/>
<text text-anchor="middle" x="200" y="-839.6" font-family="Times,serif" font-size="14.00">*</text>
</g>
<!-- 12&#45;&#45;13 -->
<g id="edge12" class="edge">
<title>12&#45;&#45;13</title>
<path fill="none" stroke="black" d="M242.89,-931.62C231.23,-907.87 217.15,-879.21 208.38,-861.37"/>
</g>
<!-- 14 -->
<g id="node14" class="node">
<title>14</title>
<ellipse fill="none" stroke="black" cx="263" cy="-843.3" rx="18" ry="18"/>
<text text-anchor="middle" x="263" y="-839.6" font-family="Times,serif" font-size="14.00">f</text>
</g>
<!-- 12&#45;&#45;14 -->
<g id="edge13" class="edge">
<title>12&#45;&#45;14</title>
<path fill="none" stroke="black" d="M263,-927.33C263,-904.54 263,-878.26 263,-861.47"/>
</g>
<!-- 16 -->
<g id="node16" class="node">
<title>16</title>
<ellipse fill="none" stroke="black" cx="345" cy="-843.3" rx="46.29" ry="46.29"/>
<text text-anchor="middle" x="345" y="-839.6" font-family="Times,serif" font-size="14.00">t_prime</text>
</g>
<!-- 12&#45;&#45;16 -->
<g id="edge15" class="edge">
<title>12&#45;&#45;16</title>
<path fill="none" stroke="black" d="M287.6,-934.07C297.98,-917.84 310.04,-898.98 320.41,-882.75"/>
</g>
<!-- 15 -->
<g id="node15" class="node">
<title>15</title>
<polygon fill="none" stroke="green" points="290,-761.16 236,-761.16 236,-725.16 290,-725.16 290,-761.16"/>
<text text-anchor="middle" x="263" y="-739.46" font-family="Times,serif" font-size="14.00">303</text>
</g>
<!-- 14&#45;&#45;15 -->
<g id="edge14" class="edge">
<title>14&#45;&#45;15</title>
<path fill="none" stroke="black" d="M263,-825.21C263,-807.3 263,-779.34 263,-761.39"/>
</g>
<!-- 17 -->
<g id="node17" class="node">
<title>17</title>
<polygon fill="none" stroke="green" points="369.5,-761.16 312.5,-761.16 312.5,-725.16 369.5,-725.16 369.5,-761.16"/>
<text text-anchor="middle" x="341" y="-739.46" font-family="Times,serif" font-size="14.00">[EPS]</text>
</g>
<!-- 16&#45;&#45;17 -->
<g id="edge16" class="edge">
<title>16&#45;&#45;17</title>
<path fill="none" stroke="black" d="M343.15,-796.97C342.64,-784.31 342.11,-771.32 341.7,-761.39"/>
</g>
<!-- 19 -->
<g id="node19" class="node">
<title>19</title>
<polygon fill="none" stroke="green" points="483,-991.55 429,-991.55 429,-955.55 483,-955.55 483,-991.55"/>
<text text-anchor="middle" x="456" y="-969.85" font-family="Times,serif" font-size="14.00">&#45;</text>
</g>
<!-- 18&#45;&#45;19 -->
<g id="edge18" class="edge">
<title>18&#45;&#45;19</title>
<path fill="none" stroke="black" d="M476.07,-1058.84C470.53,-1035.56 464.13,-1008.68 460.07,-991.65"/>
</g>
<!-- 20 -->
<g id="node20" class="node">
<title>20</title>
<ellipse fill="none" stroke="black" cx="519" cy="-973.55" rx="18" ry="18"/>
<text text-anchor="middle" x="519" y="-969.85" font-family="Times,serif" font-size="14.00">t</text>
</g>
<!-- 18&#45;&#45;20 -->
<g id="edge19" class="edge">
<title>18&#45;&#45;20</title>
<path fill="none" stroke="black" d="M498.28,-1058.84C504.04,-1035.41 510.69,-1008.34 514.87,-991.33"/>
</g>
<!-- 52 -->
<g id="node52" class="node">
<title>52</title>
<ellipse fill="none" stroke="black" cx="649" cy="-973.55" rx="48.19" ry="48.19"/>
<text text-anchor="middle" x="649" y="-969.85" font-family="Times,serif" font-size="14.00">e_prime</text>
</g>
<!-- 18&#45;&#45;52 -->
<g id="edge51" class="edge">
<title>18&#45;&#45;52</title>
<path fill="none" stroke="black" d="M524.17,-1074.87C550.42,-1053.77 585.45,-1025.61 611.73,-1004.5"/>
</g>
<!-- 21 -->
<g id="node21" class="node">
<title>21</title>
<ellipse fill="none" stroke="black" cx="478" cy="-843.3" rx="18" ry="18"/>
<text text-anchor="middle" x="478" y="-839.6" font-family="Times,serif" font-size="14.00">f</text>
</g>
<!-- 20&#45;&#45;21 -->
<g id="edge20" class="edge">
<title>20&#45;&#45;21</title>
<path fill="none" stroke="black" d="M513.81,-956.3C505.96,-931.77 491.17,-885.51 483.28,-860.82"/>
</g>
<!-- 50 -->
<g id="node50" class="node">
<title>50</title>
<ellipse fill="none" stroke="black" cx="560" cy="-843.3" rx="46.29" ry="46.29"/>
<text text-anchor="middle" x="560" y="-839.6" font-family="Times,serif" font-size="14.00">t_prime</text>
</g>
<!-- 20&#45;&#45;50 -->
<g id="edge49" class="edge">
<title>20&#45;&#45;50</title>
<path fill="none" stroke="black" d="M524.19,-956.3C529.71,-939.05 538.66,-911.05 546.23,-887.36"/>
</g>
<!-- 22 -->
<g id="node22" class="node">
<title>22</title>
<polygon fill="none" stroke="green" points="442,-761.16 388,-761.16 388,-725.16 442,-725.16 442,-761.16"/>
<text text-anchor="middle" x="415" y="-739.46" font-family="Times,serif" font-size="14.00">(</text>
</g>
<!-- 21&#45;&#45;22 -->
<g id="edge21" class="edge">
<title>21&#45;&#45;22</title>
<path fill="none" stroke="black" d="M468.7,-827.82C457.34,-810.12 438.13,-780.2 426.03,-761.34"/>
</g>
<!-- 23 -->
<g id="node23" class="node">
<title>23</title>
<ellipse fill="none" stroke="black" cx="478" cy="-743.16" rx="18" ry="18"/>
<text text-anchor="middle" x="478" y="-739.46" font-family="Times,serif" font-size="14.00">e</text>
</g>
<!-- 21&#45;&#45;23 -->
<g id="edge22" class="edge">
<title>21&#45;&#45;23</title>
<path fill="none" stroke="black" d="M478,-825.21C478,-807.3 478,-779.34 478,-761.39"/>
</g>
<!-- 49 -->
<g id="node49" class="node">
<title>49</title>
<polygon fill="none" stroke="green" points="568,-761.16 514,-761.16 514,-725.16 568,-725.16 568,-761.16"/>
<text text-anchor="middle" x="541" y="-739.46" font-family="Times,serif" font-size="14.00">)</text>
</g>
<!-- 21&#45;&#45;49 -->
<g id="edge48" class="edge">
<title>21&#45;&#45;49</title>
<path fill="none" stroke="black" d="M486.78,-827.12C491.96,-818.3 498.71,-807.01 505,-797.16 512.78,-784.97 521.94,-771.49 529.07,-761.18"/>
</g>
<!-- 24 -->
<g id="node24" class="node">
<title>24</title>
<ellipse fill="none" stroke="black" cx="433" cy="-641.06" rx="18" ry="18"/>
<text text-anchor="middle" x="433" y="-637.36" font-family="Times,serif" font-size="14.00">t</text>
</g>
<!-- 23&#45;&#45;24 -->
<g id="edge23" class="edge">
<title>23&#45;&#45;24</title>
<path fill="none" stroke="black" d="M470.97,-726.52C462.56,-707.82 448.58,-676.71 440.13,-657.92"/>
</g>
<!-- 29 -->
<g id="node29" class="node">
<title>29</title>
<ellipse fill="none" stroke="black" cx="555" cy="-641.06" rx="48.19" ry="48.19"/>
<text text-anchor="middle" x="555" y="-637.36" font-family="Times,serif" font-size="14.00">e_prime</text>
</g>
<!-- 23&#45;&#45;29 -->
<g id="edge28" class="edge">
<title>23&#45;&#45;29</title>
<path fill="none" stroke="black" d="M488.71,-728.24C498.38,-715.67 513.05,-696.59 526.14,-679.57"/>
</g>
<!-- 25 -->
<g id="node25" class="node">
<title>25</title>
<ellipse fill="none" stroke="black" cx="351" cy="-508.87" rx="18" ry="18"/>
<text text-anchor="middle" x="351" y="-505.17" font-family="Times,serif" font-size="14.00">f</text>
</g>
<!-- 24&#45;&#45;25 -->
<g id="edge24" class="edge">
<title>24&#45;&#45;25</title>
<path fill="none" stroke="black" d="M423.18,-625.83C411.95,-609.43 393.17,-581.56 378,-556.97 371.47,-546.38 364.5,-534.19 359.27,-524.86"/>
</g>
<!-- 27 -->
<g id="node27" class="node">
<title>27</title>
<ellipse fill="none" stroke="black" cx="433" cy="-508.87" rx="46.29" ry="46.29"/>
<text text-anchor="middle" x="433" y="-505.17" font-family="Times,serif" font-size="14.00">t_prime</text>
</g>
<!-- 24&#45;&#45;27 -->
<g id="edge26" class="edge">
<title>24&#45;&#45;27</title>
<path fill="none" stroke="black" d="M433,-623.04C433,-605.88 433,-578.64 433,-555.19"/>
</g>
<!-- 26 -->
<g id="node26" class="node">
<title>26</title>
<polygon fill="none" stroke="green" points="378,-394.68 324,-394.68 324,-358.68 378,-358.68 378,-394.68"/>
<text text-anchor="middle" x="351" y="-372.98" font-family="Times,serif" font-size="14.00">10</text>
</g>
<!-- 25&#45;&#45;26 -->
<g id="edge25" class="edge">
<title>25&#45;&#45;26</title>
<path fill="none" stroke="black" d="M351,-490.85C351,-465.9 351,-419.66 351,-394.7"/>
</g>
<!-- 28 -->
<g id="node28" class="node">
<title>28</title>
<polygon fill="none" stroke="green" points="461.5,-394.68 404.5,-394.68 404.5,-358.68 461.5,-358.68 461.5,-394.68"/>
<text text-anchor="middle" x="433" y="-372.98" font-family="Times,serif" font-size="14.00">[EPS]</text>
</g>
<!-- 27&#45;&#45;28 -->
<g id="edge27" class="edge">
<title>27&#45;&#45;28</title>
<path fill="none" stroke="black" d="M433,-462.7C433,-439.35 433,-412.21 433,-394.99"/>
</g>
<!-- 30 -->
<g id="node30" class="node">
<title>30</title>
<polygon fill="none" stroke="green" points="551,-526.87 497,-526.87 497,-490.87 551,-490.87 551,-526.87"/>
<text text-anchor="middle" x="524" y="-505.17" font-family="Times,serif" font-size="14.00">+</text>
</g>
<!-- 29&#45;&#45;30 -->
<g id="edge29" class="edge">
<title>29&#45;&#45;30</title>
<path fill="none" stroke="black" d="M544.07,-594.16C538.53,-570.88 532.13,-544 528.07,-526.98"/>
</g>
<!-- 31 -->
<g id="node31" class="node">
<title>31</title>
<ellipse fill="none" stroke="black" cx="587" cy="-508.87" rx="18" ry="18"/>
<text text-anchor="middle" x="587" y="-505.17" font-family="Times,serif" font-size="14.00">t</text>
</g>
<!-- 29&#45;&#45;31 -->
<g id="edge30" class="edge">
<title>29&#45;&#45;31</title>
<path fill="none" stroke="black" d="M566.28,-594.16C572.04,-570.73 578.69,-543.67 582.87,-526.66"/>
</g>
<!-- 36 -->
<g id="node36" class="node">
<title>36</title>
<ellipse fill="none" stroke="black" cx="709" cy="-508.87" rx="48.19" ry="48.19"/>
<text text-anchor="middle" x="709" y="-505.17" font-family="Times,serif" font-size="14.00">e_prime</text>
</g>
<!-- 29&#45;&#45;36 -->
<g id="edge35" class="edge">
<title>29&#45;&#45;36</title>
<path fill="none" stroke="black" d="M591.5,-609.21C616.04,-588.46 648.27,-561.21 672.77,-540.5"/>
</g>
<!-- 32 -->
<g id="node32" class="node">
<title>32</title>
<ellipse fill="none" stroke="black" cx="505" cy="-376.68" rx="18" ry="18"/>
<text text-anchor="middle" x="505" y="-372.98" font-family="Times,serif" font-size="14.00">f</text>
</g>
<!-- 31&#45;&#45;32 -->
<g id="edge31" class="edge">
<title>31&#45;&#45;32</title>
<path fill="none" stroke="black" d="M579.01,-492.7C573.89,-483.31 566.93,-471.11 560,-460.78 548.71,-443.94 543.29,-441.61 532,-424.78 525.07,-414.44 518.11,-402.24 512.99,-392.85"/>
</g>
<!-- 34 -->
<g id="node34" class="node">
<title>34</title>
<ellipse fill="none" stroke="black" cx="587" cy="-376.68" rx="46.29" ry="46.29"/>
<text text-anchor="middle" x="587" y="-372.98" font-family="Times,serif" font-size="14.00">t_prime</text>
</g>
<!-- 31&#45;&#45;34 -->
<g id="edge33" class="edge">
<title>31&#45;&#45;34</title>
<path fill="none" stroke="black" d="M587,-490.85C587,-473.69 587,-446.45 587,-423"/>
</g>
<!-- 33 -->
<g id="node33" class="node">
<title>33</title>
<polygon fill="none" stroke="green" points="532,-264.44 478,-264.44 478,-228.44 532,-228.44 532,-264.44"/>
<text text-anchor="middle" x="505" y="-242.74" font-family="Times,serif" font-size="14.00">211</text>
</g>
<!-- 32&#45;&#45;33 -->
<g id="edge32" class="edge">
<title>32&#45;&#45;33</title>
<path fill="none" stroke="black" d="M505,-358.65C505,-334.12 505,-289.1 505,-264.54"/>
</g>
<!-- 35 -->
<g id="node35" class="node">
<title>35</title>
<polygon fill="none" stroke="green" points="615.5,-264.44 558.5,-264.44 558.5,-228.44 615.5,-228.44 615.5,-264.44"/>
<text text-anchor="middle" x="587" y="-242.74" font-family="Times,serif" font-size="14.00">[EPS]</text>
</g>
<!-- 34&#45;&#45;35 -->
<g id="edge34" class="edge">
<title>34&#45;&#45;35</title>
<path fill="none" stroke="black" d="M587,-330.47C587,-307.68 587,-281.39 587,-264.61"/>
</g>
<!-- 37 -->
<g id="node37" class="node">
<title>37</title>
<polygon fill="none" stroke="green" points="705,-394.68 651,-394.68 651,-358.68 705,-358.68 705,-394.68"/>
<text text-anchor="middle" x="678" y="-372.98" font-family="Times,serif" font-size="14.00">+</text>
</g>
<!-- 36&#45;&#45;37 -->
<g id="edge36" class="edge">
<title>36&#45;&#45;37</title>
<path fill="none" stroke="black" d="M698.07,-461.97C692.53,-438.69 686.13,-411.81 682.07,-394.79"/>
</g>
<!-- 38 -->
<g id="node38" class="node">
<title>38</title>
<ellipse fill="none" stroke="black" cx="741" cy="-376.68" rx="18" ry="18"/>
<text text-anchor="middle" x="741" y="-372.98" font-family="Times,serif" font-size="14.00">t</text>
</g>
<!-- 36&#45;&#45;38 -->
<g id="edge37" class="edge">
<title>36&#45;&#45;38</title>
<path fill="none" stroke="black" d="M720.28,-461.97C726.04,-438.54 732.69,-411.47 736.87,-394.47"/>
</g>
<!-- 47 -->
<g id="node47" class="node">
<title>47</title>
<ellipse fill="none" stroke="black" cx="830" cy="-376.68" rx="48.19" ry="48.19"/>
<text text-anchor="middle" x="830" y="-372.98" font-family="Times,serif" font-size="14.00">e_prime</text>
</g>
<!-- 36&#45;&#45;47 -->
<g id="edge46" class="edge">
<title>36&#45;&#45;47</title>
<path fill="none" stroke="black" d="M741.43,-472.98C758.79,-454.3 780.11,-431.36 797.48,-412.66"/>
</g>
<!-- 39 -->
<g id="node39" class="node">
<title>39</title>
<ellipse fill="none" stroke="black" cx="656" cy="-246.44" rx="18" ry="18"/>
<text text-anchor="middle" x="656" y="-242.74" font-family="Times,serif" font-size="14.00">f</text>
</g>
<!-- 38&#45;&#45;39 -->
<g id="edge38" class="edge">
<title>38&#45;&#45;39</title>
<path fill="none" stroke="black" d="M733.01,-360.51C727.89,-351.11 720.93,-338.92 714,-328.58 702.71,-311.75 697.84,-309.04 686,-292.58 678.85,-282.65 671.23,-271.17 665.46,-262.27"/>
</g>
<!-- 41 -->
<g id="node41" class="node">
<title>41</title>
<ellipse fill="none" stroke="black" cx="741" cy="-246.44" rx="46.29" ry="46.29"/>
<text text-anchor="middle" x="741" y="-242.74" font-family="Times,serif" font-size="14.00">t_prime</text>
</g>
<!-- 38&#45;&#45;41 -->
<g id="edge40" class="edge">
<title>38&#45;&#45;41</title>
<path fill="none" stroke="black" d="M741,-358.65C741,-341.89 741,-315.56 741,-292.73"/>
</g>
<!-- 40 -->
<g id="node40" class="node">
<title>40</title>
<polygon fill="none" stroke="green" points="658,-136.15 604,-136.15 604,-100.15 658,-100.15 658,-136.15"/>
<text text-anchor="middle" x="631" y="-114.45" font-family="Times,serif" font-size="14.00">30</text>
</g>
<!-- 39&#45;&#45;40 -->
<g id="edge39" class="edge">
<title>39&#45;&#45;40</title>
<path fill="none" stroke="black" d="M652.68,-228.67C647.93,-204.65 639.22,-160.67 634.41,-136.39"/>
</g>
<!-- 42 -->
<g id="node42" class="node">
<title>42</title>
<polygon fill="none" stroke="green" points="730,-136.15 676,-136.15 676,-100.15 730,-100.15 730,-136.15"/>
<text text-anchor="middle" x="703" y="-114.45" font-family="Times,serif" font-size="14.00">/</text>
</g>
<!-- 41&#45;&#45;42 -->
<g id="edge41" class="edge">
<title>41&#45;&#45;42</title>
<path fill="none" stroke="black" d="M727.92,-201.98C721.14,-179.43 713.23,-153.16 708.18,-136.35"/>
</g>
<!-- 43 -->
<g id="node43" class="node">
<title>43</title>
<ellipse fill="none" stroke="black" cx="766" cy="-118.15" rx="18" ry="18"/>
<text text-anchor="middle" x="766" y="-114.45" font-family="Times,serif" font-size="14.00">f</text>
</g>
<!-- 41&#45;&#45;43 -->
<g id="edge42" class="edge">
<title>41&#45;&#45;43</title>
<path fill="none" stroke="black" d="M749.81,-200.91C754.26,-178.47 759.38,-152.58 762.65,-136.05"/>
</g>
<!-- 45 -->
<g id="node45" class="node">
<title>45</title>
<ellipse fill="none" stroke="black" cx="848" cy="-118.15" rx="46.29" ry="46.29"/>
<text text-anchor="middle" x="848" y="-114.45" font-family="Times,serif" font-size="14.00">t_prime</text>
</g>
<!-- 41&#45;&#45;45 -->
<g id="edge44" class="edge">
<title>41&#45;&#45;45</title>
<path fill="none" stroke="black" d="M770.52,-210.59C785.49,-192.92 803.62,-171.53 818.57,-153.88"/>
</g>
<!-- 44 -->
<g id="node44" class="node">
<title>44</title>
<polygon fill="none" stroke="green" points="793,-36 739,-36 739,0 793,0 793,-36"/>
<text text-anchor="middle" x="766" y="-14.3" font-family="Times,serif" font-size="14.00">3</text>
</g>
<!-- 43&#45;&#45;44 -->
<g id="edge43" class="edge">
<title>43&#45;&#45;44</title>
<path fill="none" stroke="black" d="M766,-100.05C766,-82.15 766,-54.18 766,-36.23"/>
</g>
<!-- 46 -->
<g id="node46" class="node">
<title>46</title>
<polygon fill="none" stroke="green" points="876.5,-36 819.5,-36 819.5,0 876.5,0 876.5,-36"/>
<text text-anchor="middle" x="848" y="-14.3" font-family="Times,serif" font-size="14.00">[EPS]</text>
</g>
<!-- 45&#45;&#45;46 -->
<g id="edge45" class="edge">
<title>45&#45;&#45;46</title>
<path fill="none" stroke="black" d="M848,-71.81C848,-59.15 848,-46.16 848,-36.23"/>
</g>
<!-- 48 -->
<g id="node48" class="node">
<title>48</title>
<polygon fill="none" stroke="green" points="862.5,-264.44 805.5,-264.44 805.5,-228.44 862.5,-228.44 862.5,-264.44"/>
<text text-anchor="middle" x="834" y="-242.74" font-family="Times,serif" font-size="14.00">[EPS]</text>
</g>
<!-- 47&#45;&#45;48 -->
<g id="edge47" class="edge">
<title>47&#45;&#45;48</title>
<path fill="none" stroke="black" d="M831.48,-328.29C832.17,-306.03 832.96,-280.88 833.46,-264.62"/>
</g>
<!-- 51 -->
<g id="node51" class="node">
<title>51</title>
<polygon fill="none" stroke="green" points="643.5,-761.16 586.5,-761.16 586.5,-725.16 643.5,-725.16 643.5,-761.16"/>
<text text-anchor="middle" x="615" y="-739.46" font-family="Times,serif" font-size="14.00">[EPS]</text>
</g>
<!-- 50&#45;&#45;51 -->
<g id="edge50" class="edge">
<title>50&#45;&#45;51</title>
<path fill="none" stroke="black" d="M582.21,-802.67C590.26,-788.3 598.94,-772.82 605.34,-761.39"/>
</g>
<!-- 53 -->
<g id="node53" class="node">
<title>53</title>
<polygon fill="none" stroke="green" points="681.5,-861.3 624.5,-861.3 624.5,-825.3 681.5,-825.3 681.5,-861.3"/>
<text text-anchor="middle" x="653" y="-839.6" font-family="Times,serif" font-size="14.00">[EPS]</text>
</g>
<!-- 52&#45;&#45;53 -->
<g id="edge52" class="edge">
<title>52&#45;&#45;53</title>
<path fill="none" stroke="black" d="M650.48,-925.16C651.17,-902.9 651.96,-877.74 652.46,-861.49"/>
</g>
</g>
</svg>
