<?xml version="1.0" encoding="UTF-8" standalone="no"?>
<!DOCTYPE svg PUBLIC "-//W3C//DTD SVG 1.1//EN"
 "http://www.w3.org/Graphics/SVG/1.1/DTD/svg11.dtd">
<!-- Generated by graphviz version 2.43.0 (0)
 -->
<!-- Title: KotlinArray Pages: 1 -->
<svg width="765pt" height="838pt"
 viewBox="0.00 0.00 765.00 838.38" xmlns="http://www.w3.org/2000/svg" xmlns:xlink="http://www.w3.org/1999/xlink">
<g id="graph0" class="graph" transform="scale(1 1) rotate(0) translate(4 834.38)">
<title>KotlinArray</title>
<polygon fill="white" stroke="transparent" points="-4,4 -4,-834.38 761,-834.38 761,4 -4,4"/>
<!-- 1 -->
<g id="node1" class="node">
<title>1</title>
<ellipse fill="none" stroke="black" cx="265" cy="-812.18" rx="18.4" ry="18.4"/>
<text text-anchor="middle" x="265" y="-808.48" font-family="Times,serif" font-size="14.00">D</text>
</g>
<!-- 2 -->
<g id="node2" class="node">
<title>2</title>
<polygon fill="none" stroke="green" points="94,-757.79 0,-757.79 0,-721.79 94,-721.79 94,-757.79"/>
<text text-anchor="middle" x="47" y="-736.09" font-family="Times,serif" font-size="14.00">KEYWORD</text>
</g>
<!-- 1&#45;&#45;2 -->
<g id="edge1" class="edge">
<title>1&#45;&#45;2</title>
<path fill="none" stroke="black" d="M247.89,-805.66C215.17,-795.09 142.67,-771.68 94.32,-756.07"/>
</g>
<!-- 3 -->
<g id="node3" class="node">
<title>3</title>
<polygon fill="none" stroke="green" points="175.5,-757.79 112.5,-757.79 112.5,-721.79 175.5,-721.79 175.5,-757.79"/>
<text text-anchor="middle" x="144" y="-736.09" font-family="Times,serif" font-size="14.00">NAME</text>
</g>
<!-- 1&#45;&#45;3 -->
<g id="edge2" class="edge">
<title>1&#45;&#45;3</title>
<path fill="none" stroke="black" d="M249.68,-802.27C230.6,-791.17 197.6,-771.97 173.54,-757.97"/>
</g>
<!-- 4 -->
<g id="node4" class="node">
<title>4</title>
<polygon fill="none" stroke="green" points="264.5,-757.79 193.5,-757.79 193.5,-721.79 264.5,-721.79 264.5,-757.79"/>
<text text-anchor="middle" x="229" y="-736.09" font-family="Times,serif" font-size="14.00">COLON</text>
</g>
<!-- 1&#45;&#45;4 -->
<g id="edge3" class="edge">
<title>1&#45;&#45;4</title>
<path fill="none" stroke="black" d="M257.01,-795.56C251.29,-784.38 243.6,-769.34 237.72,-757.84"/>
</g>
<!-- 5 -->
<g id="node5" class="node">
<title>5</title>
<ellipse fill="none" stroke="black" cx="301" cy="-739.79" rx="18.4" ry="18.4"/>
<text text-anchor="middle" x="301" y="-736.09" font-family="Times,serif" font-size="14.00">G</text>
</g>
<!-- 1&#45;&#45;5 -->
<g id="edge4" class="edge">
<title>1&#45;&#45;5</title>
<path fill="none" stroke="black" d="M272.99,-795.56C278.96,-783.89 287.07,-768.02 293.03,-756.37"/>
</g>
<!-- 37 -->
<g id="node37" class="node">
<title>37</title>
<polygon fill="none" stroke="green" points="447,-757.79 337,-757.79 337,-721.79 447,-721.79 447,-757.79"/>
<text text-anchor="middle" x="392" y="-736.09" font-family="Times,serif" font-size="14.00">SEMICOLON</text>
</g>
<!-- 1&#45;&#45;37 -->
<g id="edge36" class="edge">
<title>1&#45;&#45;37</title>
<path fill="none" stroke="black" d="M280.57,-802.55C300.58,-791.46 335.75,-771.97 361.24,-757.84"/>
</g>
<!-- 38 -->
<g id="node38" class="node">
<title>38</title>
<polygon fill="none" stroke="green" points="519,-757.79 465,-757.79 465,-721.79 519,-721.79 519,-757.79"/>
<text text-anchor="middle" x="492" y="-736.09" font-family="Times,serif" font-size="14.00">END</text>
</g>
<!-- 1&#45;&#45;38 -->
<g id="edge37" class="edge">
<title>1&#45;&#45;38</title>
<path fill="none" stroke="black" d="M282.71,-807.34C316.82,-799.7 393.79,-781.3 456,-757.98 458.85,-756.91 461.79,-755.7 464.7,-754.43"/>
</g>
<!-- 6 -->
<g id="node6" class="node">
<title>6</title>
<polygon fill="none" stroke="green" points="207,-685.59 141,-685.59 141,-649.59 207,-649.59 207,-685.59"/>
<text text-anchor="middle" x="174" y="-663.89" font-family="Times,serif" font-size="14.00">ARRAY</text>
</g>
<!-- 5&#45;&#45;6 -->
<g id="edge5" class="edge">
<title>5&#45;&#45;6</title>
<path fill="none" stroke="black" d="M285.99,-729.34C281.81,-726.77 277.25,-724.03 273,-721.59 251.36,-709.16 226.61,-695.91 207.27,-685.77"/>
</g>
<!-- 7 -->
<g id="node7" class="node">
<title>7</title>
<polygon fill="none" stroke="green" points="303,-685.59 225,-685.59 225,-649.59 303,-649.59 303,-685.59"/>
<text text-anchor="middle" x="264" y="-663.89" font-family="Times,serif" font-size="14.00">LANGLE</text>
</g>
<!-- 5&#45;&#45;7 -->
<g id="edge6" class="edge">
<title>5&#45;&#45;7</title>
<path fill="none" stroke="black" d="M292.79,-723.21C286.91,-712.06 279.01,-697.06 272.97,-685.6"/>
</g>
<!-- 8 -->
<g id="node8" class="node">
<title>8</title>
<ellipse fill="none" stroke="black" cx="339" cy="-667.59" rx="18" ry="18"/>
<text text-anchor="middle" x="339" y="-663.89" font-family="Times,serif" font-size="14.00">T</text>
</g>
<!-- 5&#45;&#45;8 -->
<g id="edge7" class="edge">
<title>5&#45;&#45;8</title>
<path fill="none" stroke="black" d="M309.25,-723.55C315.62,-711.78 324.4,-695.56 330.77,-683.79"/>
</g>
<!-- 36 -->
<g id="node36" class="node">
<title>36</title>
<polygon fill="none" stroke="green" points="455,-685.59 375,-685.59 375,-649.59 455,-649.59 455,-685.59"/>
<text text-anchor="middle" x="415" y="-663.89" font-family="Times,serif" font-size="14.00">RANGLE</text>
</g>
<!-- 5&#45;&#45;36 -->
<g id="edge35" class="edge">
<title>5&#45;&#45;36</title>
<path fill="none" stroke="black" d="M316.1,-729.09C319.97,-726.63 324.13,-724 328,-721.59 347.51,-709.43 369.64,-695.95 386.7,-685.63"/>
</g>
<!-- 9 -->
<g id="node9" class="node">
<title>9</title>
<ellipse fill="none" stroke="black" cx="339" cy="-595.39" rx="18.4" ry="18.4"/>
<text text-anchor="middle" x="339" y="-591.69" font-family="Times,serif" font-size="14.00">G</text>
</g>
<!-- 8&#45;&#45;9 -->
<g id="edge8" class="edge">
<title>8&#45;&#45;9</title>
<path fill="none" stroke="black" d="M339,-649.23C339,-638.52 339,-624.8 339,-614.03"/>
</g>
<!-- 10 -->
<g id="node10" class="node">
<title>10</title>
<polygon fill="none" stroke="green" points="245,-541.19 179,-541.19 179,-505.19 245,-505.19 245,-541.19"/>
<text text-anchor="middle" x="212" y="-519.49" font-family="Times,serif" font-size="14.00">ARRAY</text>
</g>
<!-- 9&#45;&#45;10 -->
<g id="edge9" class="edge">
<title>9&#45;&#45;10</title>
<path fill="none" stroke="black" d="M323.43,-585.78C303.42,-574.72 268.25,-555.28 242.76,-541.19"/>
</g>
<!-- 11 -->
<g id="node11" class="node">
<title>11</title>
<polygon fill="none" stroke="green" points="341,-541.19 263,-541.19 263,-505.19 341,-505.19 341,-541.19"/>
<text text-anchor="middle" x="302" y="-519.49" font-family="Times,serif" font-size="14.00">LANGLE</text>
</g>
<!-- 9&#45;&#45;11 -->
<g id="edge10" class="edge">
<title>9&#45;&#45;11</title>
<path fill="none" stroke="black" d="M330.79,-578.81C324.91,-567.66 317.01,-552.66 310.97,-541.2"/>
</g>
<!-- 12 -->
<g id="node12" class="node">
<title>12</title>
<ellipse fill="none" stroke="black" cx="377" cy="-523.19" rx="18" ry="18"/>
<text text-anchor="middle" x="377" y="-519.49" font-family="Times,serif" font-size="14.00">T</text>
</g>
<!-- 9&#45;&#45;12 -->
<g id="edge11" class="edge">
<title>9&#45;&#45;12</title>
<path fill="none" stroke="black" d="M347.25,-579.16C353.62,-567.38 362.4,-551.16 368.77,-539.39"/>
</g>
<!-- 35 -->
<g id="node35" class="node">
<title>35</title>
<polygon fill="none" stroke="green" points="493,-541.19 413,-541.19 413,-505.19 493,-505.19 493,-541.19"/>
<text text-anchor="middle" x="453" y="-519.49" font-family="Times,serif" font-size="14.00">RANGLE</text>
</g>
<!-- 9&#45;&#45;35 -->
<g id="edge34" class="edge">
<title>9&#45;&#45;35</title>
<path fill="none" stroke="black" d="M354.37,-584.92C372.49,-573.77 402.92,-555.03 425.21,-541.31"/>
</g>
<!-- 13 -->
<g id="node13" class="node">
<title>13</title>
<ellipse fill="none" stroke="black" cx="377" cy="-450.99" rx="18.4" ry="18.4"/>
<text text-anchor="middle" x="377" y="-447.29" font-family="Times,serif" font-size="14.00">G</text>
</g>
<!-- 12&#45;&#45;13 -->
<g id="edge12" class="edge">
<title>12&#45;&#45;13</title>
<path fill="none" stroke="black" d="M377,-504.84C377,-494.12 377,-480.4 377,-469.63"/>
</g>
<!-- 14 -->
<g id="node14" class="node">
<title>14</title>
<polygon fill="none" stroke="green" points="208,-396.79 154,-396.79 154,-360.79 208,-360.79 208,-396.79"/>
<text text-anchor="middle" x="181" y="-375.09" font-family="Times,serif" font-size="14.00">MAP</text>
</g>
<!-- 13&#45;&#45;14 -->
<g id="edge13" class="edge">
<title>13&#45;&#45;14</title>
<path fill="none" stroke="black" d="M359.47,-444.92C329.77,-436.15 267.81,-417.15 217,-396.79 214.18,-395.66 211.26,-394.42 208.37,-393.13"/>
</g>
<!-- 15 -->
<g id="node15" class="node">
<title>15</title>
<polygon fill="none" stroke="green" points="304,-396.79 226,-396.79 226,-360.79 304,-360.79 304,-396.79"/>
<text text-anchor="middle" x="265" y="-375.09" font-family="Times,serif" font-size="14.00">LANGLE</text>
</g>
<!-- 13&#45;&#45;15 -->
<g id="edge14" class="edge">
<title>13&#45;&#45;15</title>
<path fill="none" stroke="black" d="M361.9,-440.52C344.1,-429.37 314.2,-410.63 292.31,-396.91"/>
</g>
<!-- 16 -->
<g id="node16" class="node">
<title>16</title>
<ellipse fill="none" stroke="black" cx="340" cy="-378.79" rx="18" ry="18"/>
<text text-anchor="middle" x="340" y="-375.09" font-family="Times,serif" font-size="14.00">T</text>
</g>
<!-- 13&#45;&#45;16 -->
<g id="edge15" class="edge">
<title>13&#45;&#45;16</title>
<path fill="none" stroke="black" d="M368.79,-434.41C362.66,-422.78 354.31,-406.95 348.19,-395.33"/>
</g>
<!-- 18 -->
<g id="node18" class="node">
<title>18</title>
<polygon fill="none" stroke="green" points="453.5,-396.79 376.5,-396.79 376.5,-360.79 453.5,-360.79 453.5,-396.79"/>
<text text-anchor="middle" x="415" y="-375.09" font-family="Times,serif" font-size="14.00">COMMA</text>
</g>
<!-- 13&#45;&#45;18 -->
<g id="edge17" class="edge">
<title>13&#45;&#45;18</title>
<path fill="none" stroke="black" d="M385.25,-434.76C391.27,-423.63 399.45,-408.53 405.7,-396.97"/>
</g>
<!-- 19 -->
<g id="node19" class="node">
<title>19</title>
<ellipse fill="none" stroke="black" cx="490" cy="-378.79" rx="18" ry="18"/>
<text text-anchor="middle" x="490" y="-375.09" font-family="Times,serif" font-size="14.00">T</text>
</g>
<!-- 13&#45;&#45;19 -->
<g id="edge18" class="edge">
<title>13&#45;&#45;19</title>
<path fill="none" stroke="black" d="M392.24,-440.52C413.93,-427.05 453.45,-402.5 475,-389.11"/>
</g>
<!-- 34 -->
<g id="node34" class="node">
<title>34</title>
<polygon fill="none" stroke="green" points="606,-396.79 526,-396.79 526,-360.79 606,-360.79 606,-396.79"/>
<text text-anchor="middle" x="566" y="-375.09" font-family="Times,serif" font-size="14.00">RANGLE</text>
</g>
<!-- 13&#45;&#45;34 -->
<g id="edge33" class="edge">
<title>13&#45;&#45;34</title>
<path fill="none" stroke="black" d="M393.77,-443.76C423.22,-432.82 484.99,-409.88 525.99,-394.66"/>
</g>
<!-- 17 -->
<g id="node17" class="node">
<title>17</title>
<polygon fill="none" stroke="green" points="371.5,-324.6 308.5,-324.6 308.5,-288.6 371.5,-288.6 371.5,-324.6"/>
<text text-anchor="middle" x="340" y="-302.9" font-family="Times,serif" font-size="14.00">NAME</text>
</g>
<!-- 16&#45;&#45;17 -->
<g id="edge16" class="edge">
<title>16&#45;&#45;17</title>
<path fill="none" stroke="black" d="M340,-360.44C340,-349.56 340,-335.59 340,-324.75"/>
</g>
<!-- 20 -->
<g id="node20" class="node">
<title>20</title>
<ellipse fill="none" stroke="black" cx="490" cy="-306.6" rx="18.4" ry="18.4"/>
<text text-anchor="middle" x="490" y="-302.9" font-family="Times,serif" font-size="14.00">G</text>
</g>
<!-- 19&#45;&#45;20 -->
<g id="edge19" class="edge">
<title>19&#45;&#45;20</title>
<path fill="none" stroke="black" d="M490,-360.44C490,-349.72 490,-336.01 490,-325.24"/>
</g>
<!-- 21 -->
<g id="node21" class="node">
<title>21</title>
<polygon fill="none" stroke="green" points="321,-252.4 267,-252.4 267,-216.4 321,-216.4 321,-252.4"/>
<text text-anchor="middle" x="294" y="-230.7" font-family="Times,serif" font-size="14.00">MAP</text>
</g>
<!-- 20&#45;&#45;21 -->
<g id="edge20" class="edge">
<title>20&#45;&#45;21</title>
<path fill="none" stroke="black" d="M472.47,-300.52C442.77,-291.76 380.81,-272.76 330,-252.4 327.18,-251.27 324.26,-250.02 321.37,-248.74"/>
</g>
<!-- 22 -->
<g id="node22" class="node">
<title>22</title>
<polygon fill="none" stroke="green" points="417,-252.4 339,-252.4 339,-216.4 417,-216.4 417,-252.4"/>
<text text-anchor="middle" x="378" y="-230.7" font-family="Times,serif" font-size="14.00">LANGLE</text>
</g>
<!-- 20&#45;&#45;22 -->
<g id="edge21" class="edge">
<title>20&#45;&#45;22</title>
<path fill="none" stroke="black" d="M474.9,-296.13C457.1,-284.98 427.2,-266.23 405.31,-252.51"/>
</g>
<!-- 23 -->
<g id="node23" class="node">
<title>23</title>
<ellipse fill="none" stroke="black" cx="453" cy="-234.4" rx="18" ry="18"/>
<text text-anchor="middle" x="453" y="-230.7" font-family="Times,serif" font-size="14.00">T</text>
</g>
<!-- 20&#45;&#45;23 -->
<g id="edge22" class="edge">
<title>20&#45;&#45;23</title>
<path fill="none" stroke="black" d="M481.79,-290.02C475.66,-278.38 467.31,-262.56 461.19,-250.93"/>
</g>
<!-- 25 -->
<g id="node25" class="node">
<title>25</title>
<polygon fill="none" stroke="green" points="566.5,-252.4 489.5,-252.4 489.5,-216.4 566.5,-216.4 566.5,-252.4"/>
<text text-anchor="middle" x="528" y="-230.7" font-family="Times,serif" font-size="14.00">COMMA</text>
</g>
<!-- 20&#45;&#45;25 -->
<g id="edge24" class="edge">
<title>20&#45;&#45;25</title>
<path fill="none" stroke="black" d="M498.25,-290.36C504.27,-279.23 512.45,-264.13 518.7,-252.57"/>
</g>
<!-- 26 -->
<g id="node26" class="node">
<title>26</title>
<ellipse fill="none" stroke="black" cx="603" cy="-234.4" rx="18" ry="18"/>
<text text-anchor="middle" x="603" y="-230.7" font-family="Times,serif" font-size="14.00">T</text>
</g>
<!-- 20&#45;&#45;26 -->
<g id="edge25" class="edge">
<title>20&#45;&#45;26</title>
<path fill="none" stroke="black" d="M505.25,-296.21C522.46,-285.61 551.28,-267.83 576,-252.4 579.95,-249.93 584.21,-247.26 588.16,-244.77"/>
</g>
<!-- 33 -->
<g id="node33" class="node">
<title>33</title>
<polygon fill="none" stroke="green" points="719,-252.4 639,-252.4 639,-216.4 719,-216.4 719,-252.4"/>
<text text-anchor="middle" x="679" y="-230.7" font-family="Times,serif" font-size="14.00">RANGLE</text>
</g>
<!-- 20&#45;&#45;33 -->
<g id="edge32" class="edge">
<title>20&#45;&#45;33</title>
<path fill="none" stroke="black" d="M506.77,-299.37C536.22,-288.43 597.99,-265.48 638.99,-250.26"/>
</g>
<!-- 24 -->
<g id="node24" class="node">
<title>24</title>
<polygon fill="none" stroke="green" points="484.5,-180.2 421.5,-180.2 421.5,-144.2 484.5,-144.2 484.5,-180.2"/>
<text text-anchor="middle" x="453" y="-158.5" font-family="Times,serif" font-size="14.00">NAME</text>
</g>
<!-- 23&#45;&#45;24 -->
<g id="edge23" class="edge">
<title>23&#45;&#45;24</title>
<path fill="none" stroke="black" d="M453,-216.04C453,-205.16 453,-191.19 453,-180.35"/>
</g>
<!-- 27 -->
<g id="node27" class="node">
<title>27</title>
<ellipse fill="none" stroke="black" cx="603" cy="-162.2" rx="18.4" ry="18.4"/>
<text text-anchor="middle" x="603" y="-158.5" font-family="Times,serif" font-size="14.00">G</text>
</g>
<!-- 26&#45;&#45;27 -->
<g id="edge26" class="edge">
<title>26&#45;&#45;27</title>
<path fill="none" stroke="black" d="M603,-216.04C603,-205.33 603,-191.61 603,-180.84"/>
</g>
<!-- 28 -->
<g id="node28" class="node">
<title>28</title>
<polygon fill="none" stroke="green" points="509,-108 443,-108 443,-72 509,-72 509,-108"/>
<text text-anchor="middle" x="476" y="-86.3" font-family="Times,serif" font-size="14.00">ARRAY</text>
</g>
<!-- 27&#45;&#45;28 -->
<g id="edge27" class="edge">
<title>27&#45;&#45;28</title>
<path fill="none" stroke="black" d="M587.43,-152.59C567.42,-141.53 532.25,-122.09 506.76,-108"/>
</g>
<!-- 29 -->
<g id="node29" class="node">
<title>29</title>
<polygon fill="none" stroke="green" points="605,-108 527,-108 527,-72 605,-72 605,-108"/>
<text text-anchor="middle" x="566" y="-86.3" font-family="Times,serif" font-size="14.00">LANGLE</text>
</g>
<!-- 27&#45;&#45;29 -->
<g id="edge28" class="edge">
<title>27&#45;&#45;29</title>
<path fill="none" stroke="black" d="M594.79,-145.62C588.91,-134.47 581.01,-119.47 574.97,-108.01"/>
</g>
<!-- 30 -->
<g id="node30" class="node">
<title>30</title>
<ellipse fill="none" stroke="black" cx="641" cy="-90" rx="18" ry="18"/>
<text text-anchor="middle" x="641" y="-86.3" font-family="Times,serif" font-size="14.00">T</text>
</g>
<!-- 27&#45;&#45;30 -->
<g id="edge29" class="edge">
<title>27&#45;&#45;30</title>
<path fill="none" stroke="black" d="M611.25,-145.97C617.62,-134.19 626.4,-117.97 632.77,-106.2"/>
</g>
<!-- 32 -->
<g id="node32" class="node">
<title>32</title>
<polygon fill="none" stroke="green" points="757,-108 677,-108 677,-72 757,-72 757,-108"/>
<text text-anchor="middle" x="717" y="-86.3" font-family="Times,serif" font-size="14.00">RANGLE</text>
</g>
<!-- 27&#45;&#45;32 -->
<g id="edge31" class="edge">
<title>27&#45;&#45;32</title>
<path fill="none" stroke="black" d="M618.37,-151.73C636.49,-140.58 666.92,-121.84 689.21,-108.11"/>
</g>
<!-- 31 -->
<g id="node31" class="node">
<title>31</title>
<polygon fill="none" stroke="green" points="672.5,-36 609.5,-36 609.5,0 672.5,0 672.5,-36"/>
<text text-anchor="middle" x="641" y="-14.3" font-family="Times,serif" font-size="14.00">NAME</text>
</g>
<!-- 30&#45;&#45;31 -->
<g id="edge30" class="edge">
<title>30&#45;&#45;31</title>
<path fill="none" stroke="black" d="M641,-71.7C641,-60.85 641,-46.92 641,-36.1"/>
</g>
</g>
</svg>
