<?xml version="1.0" encoding="UTF-8" standalone="no"?>
<!DOCTYPE svg PUBLIC "-//W3C//DTD SVG 1.1//EN"
 "http://www.w3.org/Graphics/SVG/1.1/DTD/svg11.dtd">
<!-- Generated by graphviz version 2.43.0 (0)
 -->
<!-- Title: KotlinArray Pages: 1 -->
<svg width="648pt" height="260pt"
 viewBox="0.00 0.00 648.00 260.40" xmlns="http://www.w3.org/2000/svg" xmlns:xlink="http://www.w3.org/1999/xlink">
<g id="graph0" class="graph" transform="scale(1 1) rotate(0) translate(4 256.4)">
<title>KotlinArray</title>
<polygon fill="white" stroke="transparent" points="-4,4 -4,-256.4 644,-256.4 644,4 -4,4"/>
<!-- 1 -->
<g id="node1" class="node">
<title>1</title>
<ellipse fill="none" stroke="black" cx="332" cy="-234.2" rx="18.4" ry="18.4"/>
<text text-anchor="middle" x="332" y="-230.5" font-family="Times,serif" font-size="14.00">D</text>
</g>
<!-- 2 -->
<g id="node2" class="node">
<title>2</title>
<ellipse fill="none" stroke="black" cx="47" cy="-162" rx="18" ry="18"/>
<text text-anchor="middle" x="47" y="-158.3" font-family="Times,serif" font-size="14.00">K</text>
</g>
<!-- 1&#45;&#45;2 -->
<g id="edge1" class="edge">
<title>1&#45;&#45;2</title>
<path fill="none" stroke="black" d="M313.84,-231.7C270.79,-227.67 159.7,-214.49 74,-180 69.68,-178.26 65.29,-175.84 61.34,-173.36"/>
</g>
<!-- 4 -->
<g id="node4" class="node">
<title>4</title>
<polygon fill="none" stroke="green" points="146.5,-180 83.5,-180 83.5,-144 146.5,-144 146.5,-180"/>
<text text-anchor="middle" x="115" y="-158.3" font-family="Times,serif" font-size="14.00">NAME</text>
</g>
<!-- 1&#45;&#45;4 -->
<g id="edge3" class="edge">
<title>1&#45;&#45;4</title>
<path fill="none" stroke="black" d="M314.46,-228.61C282.43,-220.09 212.48,-200.78 155,-180 152.3,-179.03 149.53,-177.97 146.75,-176.87"/>
</g>
<!-- 5 -->
<g id="node5" class="node">
<title>5</title>
<polygon fill="none" stroke="green" points="235.5,-180 164.5,-180 164.5,-144 235.5,-144 235.5,-180"/>
<text text-anchor="middle" x="200" y="-158.3" font-family="Times,serif" font-size="14.00">COLON</text>
</g>
<!-- 1&#45;&#45;5 -->
<g id="edge4" class="edge">
<title>1&#45;&#45;5</title>
<path fill="none" stroke="black" d="M316.34,-224.87C295.65,-213.87 258.7,-194.22 231.99,-180.01"/>
</g>
<!-- 6 -->
<g id="node6" class="node">
<title>6</title>
<polygon fill="none" stroke="green" points="320,-180 254,-180 254,-144 320,-144 320,-180"/>
<text text-anchor="middle" x="287" y="-158.3" font-family="Times,serif" font-size="14.00">ARRAY</text>
</g>
<!-- 1&#45;&#45;6 -->
<g id="edge5" class="edge">
<title>1&#45;&#45;6</title>
<path fill="none" stroke="black" d="M322.46,-218.31C315.28,-207.12 305.45,-191.78 297.95,-180.09"/>
</g>
<!-- 7 -->
<g id="node7" class="node">
<title>7</title>
<polygon fill="none" stroke="green" points="416,-180 338,-180 338,-144 416,-144 416,-180"/>
<text text-anchor="middle" x="377" y="-158.3" font-family="Times,serif" font-size="14.00">LANGLE</text>
</g>
<!-- 1&#45;&#45;7 -->
<g id="edge6" class="edge">
<title>1&#45;&#45;7</title>
<path fill="none" stroke="black" d="M341.54,-218.31C348.72,-207.12 358.55,-191.78 366.05,-180.09"/>
</g>
<!-- 8 -->
<g id="node8" class="node">
<title>8</title>
<ellipse fill="none" stroke="black" cx="452" cy="-162" rx="18" ry="18"/>
<text text-anchor="middle" x="452" y="-158.3" font-family="Times,serif" font-size="14.00">T</text>
</g>
<!-- 1&#45;&#45;8 -->
<g id="edge7" class="edge">
<title>1&#45;&#45;8</title>
<path fill="none" stroke="black" d="M347.58,-224.55C366.15,-214.18 398.05,-196.18 425,-180 428.99,-177.6 433.27,-174.95 437.22,-172.47"/>
</g>
<!-- 14 -->
<g id="node14" class="node">
<title>14</title>
<polygon fill="none" stroke="green" points="568,-180 488,-180 488,-144 568,-144 568,-180"/>
<text text-anchor="middle" x="528" y="-158.3" font-family="Times,serif" font-size="14.00">RANGLE</text>
</g>
<!-- 1&#45;&#45;14 -->
<g id="edge13" class="edge">
<title>1&#45;&#45;14</title>
<path fill="none" stroke="black" d="M349.05,-227.09C379.79,-216.08 445.24,-192.64 487.89,-177.37"/>
</g>
<!-- 15 -->
<g id="node15" class="node">
<title>15</title>
<polygon fill="none" stroke="green" points="640,-180 586,-180 586,-144 640,-144 640,-180"/>
<text text-anchor="middle" x="613" y="-158.3" font-family="Times,serif" font-size="14.00">END</text>
</g>
<!-- 1&#45;&#45;15 -->
<g id="edge14" class="edge">
<title>1&#45;&#45;15</title>
<path fill="none" stroke="black" d="M349.9,-230.74C390.89,-224.8 494.37,-208.07 577,-180 579.88,-179.02 582.83,-177.88 585.75,-176.65"/>
</g>
<!-- 3 -->
<g id="node3" class="node">
<title>3</title>
<polygon fill="none" stroke="green" points="94,-108 0,-108 0,-72 94,-72 94,-108"/>
<text text-anchor="middle" x="47" y="-86.3" font-family="Times,serif" font-size="14.00">KEYWORD</text>
</g>
<!-- 2&#45;&#45;3 -->
<g id="edge2" class="edge">
<title>2&#45;&#45;3</title>
<path fill="none" stroke="black" d="M47,-143.7C47,-132.85 47,-118.92 47,-108.1"/>
</g>
<!-- 9 -->
<g id="node9" class="node">
<title>9</title>
<polygon fill="none" stroke="green" points="357,-108 291,-108 291,-72 357,-72 357,-108"/>
<text text-anchor="middle" x="324" y="-86.3" font-family="Times,serif" font-size="14.00">ARRAY</text>
</g>
<!-- 8&#45;&#45;9 -->
<g id="edge8" class="edge">
<title>8&#45;&#45;9</title>
<path fill="none" stroke="black" d="M437.27,-151.43C433.32,-148.95 429.03,-146.32 425,-144 402.69,-131.15 377,-117.68 357.1,-107.54"/>
</g>
<!-- 10 -->
<g id="node10" class="node">
<title>10</title>
<polygon fill="none" stroke="green" points="453,-108 375,-108 375,-72 453,-72 453,-108"/>
<text text-anchor="middle" x="414" y="-86.3" font-family="Times,serif" font-size="14.00">LANGLE</text>
</g>
<!-- 8&#45;&#45;10 -->
<g id="edge9" class="edge">
<title>8&#45;&#45;10</title>
<path fill="none" stroke="black" d="M443.75,-145.81C437.73,-134.71 429.55,-119.65 423.3,-108.13"/>
</g>
<!-- 11 -->
<g id="node11" class="node">
<title>11</title>
<ellipse fill="none" stroke="black" cx="489" cy="-90" rx="18" ry="18"/>
<text text-anchor="middle" x="489" y="-86.3" font-family="Times,serif" font-size="14.00">T</text>
</g>
<!-- 8&#45;&#45;11 -->
<g id="edge10" class="edge">
<title>8&#45;&#45;11</title>
<path fill="none" stroke="black" d="M460.03,-145.81C466.23,-134.07 474.79,-117.89 480.99,-106.16"/>
</g>
<!-- 13 -->
<g id="node13" class="node">
<title>13</title>
<polygon fill="none" stroke="green" points="605,-108 525,-108 525,-72 605,-72 605,-108"/>
<text text-anchor="middle" x="565" y="-86.3" font-family="Times,serif" font-size="14.00">RANGLE</text>
</g>
<!-- 8&#45;&#45;13 -->
<g id="edge12" class="edge">
<title>8&#45;&#45;13</title>
<path fill="none" stroke="black" d="M466.84,-151.62C470.79,-149.14 475.05,-146.46 479,-144 498.35,-131.94 520.23,-118.47 537.07,-108.12"/>
</g>
<!-- 12 -->
<g id="node12" class="node">
<title>12</title>
<polygon fill="none" stroke="green" points="520.5,-36 457.5,-36 457.5,0 520.5,0 520.5,-36"/>
<text text-anchor="middle" x="489" y="-14.3" font-family="Times,serif" font-size="14.00">NAME</text>
</g>
<!-- 11&#45;&#45;12 -->
<g id="edge11" class="edge">
<title>11&#45;&#45;12</title>
<path fill="none" stroke="black" d="M489,-71.7C489,-60.85 489,-46.92 489,-36.1"/>
</g>
</g>
</svg>
