<?xml version="1.0" encoding="UTF-8" standalone="no"?>
<!DOCTYPE svg PUBLIC "-//W3C//DTD SVG 1.1//EN"
 "http://www.w3.org/Graphics/SVG/1.1/DTD/svg11.dtd">
<!-- Generated by graphviz version 2.43.0 (0)
 -->
<!-- Title: KotlinArray Pages: 1 -->
<svg width="623pt" height="409pt"
 viewBox="0.00 0.00 623.00 409.49" xmlns="http://www.w3.org/2000/svg" xmlns:xlink="http://www.w3.org/1999/xlink">
<g id="graph0" class="graph" transform="scale(1 1) rotate(0) translate(4 405.49)">
<title>KotlinArray</title>
<polygon fill="white" stroke="transparent" points="-4,4 -4,-405.49 619,-405.49 619,4 -4,4"/>
<!-- 1 -->
<g id="node1" class="node">
<title>1</title>
<ellipse fill="none" stroke="black" cx="314" cy="-383.29" rx="18.4" ry="18.4"/>
<text text-anchor="middle" x="314" y="-379.59" font-family="Times,serif" font-size="14.00">D</text>
</g>
<!-- 2 -->
<g id="node2" class="node">
<title>2</title>
<ellipse fill="none" stroke="black" cx="68" cy="-310.24" rx="18" ry="18"/>
<text text-anchor="middle" x="68" y="-306.54" font-family="Times,serif" font-size="14.00">K</text>
</g>
<!-- 1&#45;&#45;2 -->
<g id="edge1" class="edge">
<title>1&#45;&#45;2</title>
<path fill="none" stroke="black" d="M296.3,-379.03C259.83,-372.05 173.95,-354.21 105,-329.09 97.76,-326.45 90.05,-322.86 83.54,-319.6"/>
</g>
<!-- 4 -->
<g id="node4" class="node">
<title>4</title>
<ellipse fill="none" stroke="black" cx="133" cy="-310.24" rx="18.7" ry="18.7"/>
<text text-anchor="middle" x="133" y="-306.54" font-family="Times,serif" font-size="14.00">N</text>
</g>
<!-- 1&#45;&#45;4 -->
<g id="edge3" class="edge">
<title>1&#45;&#45;4</title>
<path fill="none" stroke="black" d="M296.34,-377.75C267.1,-369.9 207.18,-352.37 160,-329.09 155.97,-327.1 151.82,-324.61 148.02,-322.13"/>
</g>
<!-- 6 -->
<g id="node6" class="node">
<title>6</title>
<polygon fill="none" stroke="green" points="240.5,-328.24 169.5,-328.24 169.5,-292.24 240.5,-292.24 240.5,-328.24"/>
<text text-anchor="middle" x="205" y="-306.54" font-family="Times,serif" font-size="14.00">COLON</text>
</g>
<!-- 1&#45;&#45;6 -->
<g id="edge5" class="edge">
<title>1&#45;&#45;6</title>
<path fill="none" stroke="black" d="M298.84,-372.41C281.41,-361.05 252.48,-342.19 231.34,-328.41"/>
</g>
<!-- 7 -->
<g id="node7" class="node">
<title>7</title>
<ellipse fill="none" stroke="black" cx="277" cy="-310.24" rx="18" ry="18"/>
<text text-anchor="middle" x="277" y="-306.54" font-family="Times,serif" font-size="14.00">A</text>
</g>
<!-- 1&#45;&#45;7 -->
<g id="edge6" class="edge">
<title>1&#45;&#45;7</title>
<path fill="none" stroke="black" d="M305.97,-366.87C299.77,-354.96 291.21,-338.54 285.01,-326.63"/>
</g>
<!-- 9 -->
<g id="node9" class="node">
<title>9</title>
<polygon fill="none" stroke="green" points="391,-328.24 313,-328.24 313,-292.24 391,-292.24 391,-328.24"/>
<text text-anchor="middle" x="352" y="-306.54" font-family="Times,serif" font-size="14.00">LANGLE</text>
</g>
<!-- 1&#45;&#45;9 -->
<g id="edge8" class="edge">
<title>1&#45;&#45;9</title>
<path fill="none" stroke="black" d="M322.25,-366.87C328.31,-355.53 336.56,-340.1 342.84,-328.37"/>
</g>
<!-- 10 -->
<g id="node10" class="node">
<title>10</title>
<ellipse fill="none" stroke="black" cx="427" cy="-310.24" rx="18" ry="18"/>
<text text-anchor="middle" x="427" y="-306.54" font-family="Times,serif" font-size="14.00">T</text>
</g>
<!-- 1&#45;&#45;10 -->
<g id="edge9" class="edge">
<title>1&#45;&#45;10</title>
<path fill="none" stroke="black" d="M329.31,-373.01C346.58,-362.5 375.45,-344.79 400,-329.09 404.07,-326.49 408.45,-323.62 412.48,-320.96"/>
</g>
<!-- 19 -->
<g id="node19" class="node">
<title>19</title>
<polygon fill="none" stroke="green" points="543,-328.24 463,-328.24 463,-292.24 543,-292.24 543,-328.24"/>
<text text-anchor="middle" x="503" y="-306.54" font-family="Times,serif" font-size="14.00">RANGLE</text>
</g>
<!-- 1&#45;&#45;19 -->
<g id="edge18" class="edge">
<title>1&#45;&#45;19</title>
<path fill="none" stroke="black" d="M330.77,-375.98C360.22,-364.91 421.99,-341.69 462.99,-326.28"/>
</g>
<!-- 20 -->
<g id="node20" class="node">
<title>20</title>
<polygon fill="none" stroke="green" points="615,-328.24 561,-328.24 561,-292.24 615,-292.24 615,-328.24"/>
<text text-anchor="middle" x="588" y="-306.54" font-family="Times,serif" font-size="14.00">END</text>
</g>
<!-- 1&#45;&#45;20 -->
<g id="edge19" class="edge">
<title>1&#45;&#45;20</title>
<path fill="none" stroke="black" d="M332.03,-379.78C372.31,-373.83 472.37,-357.27 552,-329.09 554.89,-328.07 557.86,-326.87 560.78,-325.58"/>
</g>
<!-- 3 -->
<g id="node3" class="node">
<title>3</title>
<polygon fill="none" stroke="green" points="94,-254.54 0,-254.54 0,-218.54 94,-218.54 94,-254.54"/>
<text text-anchor="middle" x="47" y="-232.84" font-family="Times,serif" font-size="14.00">KEYWORD</text>
</g>
<!-- 2&#45;&#45;3 -->
<g id="edge2" class="edge">
<title>2&#45;&#45;3</title>
<path fill="none" stroke="black" d="M63.13,-292.61C59.79,-281.2 55.36,-266.09 51.99,-254.58"/>
</g>
<!-- 5 -->
<g id="node5" class="node">
<title>5</title>
<polygon fill="none" stroke="green" points="175.5,-254.54 112.5,-254.54 112.5,-218.54 175.5,-218.54 175.5,-254.54"/>
<text text-anchor="middle" x="144" y="-232.84" font-family="Times,serif" font-size="14.00">NAME</text>
</g>
<!-- 4&#45;&#45;5 -->
<g id="edge4" class="edge">
<title>4&#45;&#45;5</title>
<path fill="none" stroke="black" d="M135.72,-291.52C137.45,-280.24 139.68,-265.71 141.39,-254.57"/>
</g>
<!-- 8 -->
<g id="node8" class="node">
<title>8</title>
<polygon fill="none" stroke="green" points="308.5,-254.54 245.5,-254.54 245.5,-218.54 308.5,-218.54 308.5,-254.54"/>
<text text-anchor="middle" x="277" y="-232.84" font-family="Times,serif" font-size="14.00">NAME</text>
</g>
<!-- 7&#45;&#45;8 -->
<g id="edge7" class="edge">
<title>7&#45;&#45;8</title>
<path fill="none" stroke="black" d="M277,-291.89C277,-280.61 277,-265.98 277,-254.74"/>
</g>
<!-- 11 -->
<g id="node11" class="node">
<title>11</title>
<polygon fill="none" stroke="green" points="424.5,-254.54 361.5,-254.54 361.5,-218.54 424.5,-218.54 424.5,-254.54"/>
<text text-anchor="middle" x="393" y="-232.84" font-family="Times,serif" font-size="14.00">NAME</text>
</g>
<!-- 10&#45;&#45;11 -->
<g id="edge10" class="edge">
<title>10&#45;&#45;11</title>
<path fill="none" stroke="black" d="M419.62,-293.68C414.15,-282.15 406.7,-266.44 401.08,-254.58"/>
</g>
<!-- 12 -->
<g id="node12" class="node">
<title>12</title>
<ellipse fill="none" stroke="black" cx="461" cy="-236.54" rx="18.7" ry="18.7"/>
<text text-anchor="middle" x="461" y="-232.84" font-family="Times,serif" font-size="14.00">T&#39;</text>
</g>
<!-- 10&#45;&#45;12 -->
<g id="edge11" class="edge">
<title>10&#45;&#45;12</title>
<path fill="none" stroke="black" d="M434.38,-293.68C439.96,-281.91 447.62,-265.77 453.28,-253.82"/>
</g>
<!-- 13 -->
<g id="node13" class="node">
<title>13</title>
<polygon fill="none" stroke="green" points="425,-181.7 347,-181.7 347,-145.7 425,-145.7 425,-181.7"/>
<text text-anchor="middle" x="386" y="-160" font-family="Times,serif" font-size="14.00">LANGLE</text>
</g>
<!-- 12&#45;&#45;13 -->
<g id="edge12" class="edge">
<title>12&#45;&#45;13</title>
<path fill="none" stroke="black" d="M447.59,-222.88C435.46,-211.42 417.49,-194.44 404.08,-181.78"/>
</g>
<!-- 14 -->
<g id="node14" class="node">
<title>14</title>
<ellipse fill="none" stroke="black" cx="461" cy="-163.7" rx="18" ry="18"/>
<text text-anchor="middle" x="461" y="-160" font-family="Times,serif" font-size="14.00">T</text>
</g>
<!-- 12&#45;&#45;14 -->
<g id="edge13" class="edge">
<title>12&#45;&#45;14</title>
<path fill="none" stroke="black" d="M461,-217.67C461,-206.68 461,-192.68 461,-181.84"/>
</g>
<!-- 18 -->
<g id="node18" class="node">
<title>18</title>
<polygon fill="none" stroke="green" points="577,-181.7 497,-181.7 497,-145.7 577,-145.7 577,-181.7"/>
<text text-anchor="middle" x="537" y="-160" font-family="Times,serif" font-size="14.00">RANGLE</text>
</g>
<!-- 12&#45;&#45;18 -->
<g id="edge17" class="edge">
<title>12&#45;&#45;18</title>
<path fill="none" stroke="black" d="M474.59,-222.88C486.88,-211.42 505.09,-194.44 518.68,-181.78"/>
</g>
<!-- 15 -->
<g id="node15" class="node">
<title>15</title>
<polygon fill="none" stroke="green" points="458.5,-108.85 395.5,-108.85 395.5,-72.85 458.5,-72.85 458.5,-108.85"/>
<text text-anchor="middle" x="427" y="-87.15" font-family="Times,serif" font-size="14.00">NAME</text>
</g>
<!-- 14&#45;&#45;15 -->
<g id="edge14" class="edge">
<title>14&#45;&#45;15</title>
<path fill="none" stroke="black" d="M453.45,-146.97C448.05,-135.72 440.79,-120.58 435.24,-109.02"/>
</g>
<!-- 16 -->
<g id="node16" class="node">
<title>16</title>
<ellipse fill="none" stroke="black" cx="495" cy="-90.85" rx="18.7" ry="18.7"/>
<text text-anchor="middle" x="495" y="-87.15" font-family="Times,serif" font-size="14.00">T&#39;</text>
</g>
<!-- 14&#45;&#45;16 -->
<g id="edge15" class="edge">
<title>14&#45;&#45;16</title>
<path fill="none" stroke="black" d="M468.55,-146.97C474.02,-135.56 481.42,-120.14 487,-108.52"/>
</g>
<!-- 17 -->
<g id="node17" class="node">
<title>17</title>
<polygon fill="none" stroke="green" points="522,-36 468,-36 468,0 522,0 522,-36"/>
<text text-anchor="middle" x="495" y="-14.3" font-family="Times,serif" font-size="14.00">EPS</text>
</g>
<!-- 16&#45;&#45;17 -->
<g id="edge16" class="edge">
<title>16&#45;&#45;17</title>
<path fill="none" stroke="black" d="M495,-71.97C495,-60.98 495,-46.99 495,-36.14"/>
</g>
</g>
</svg>
